<?xml version="1.0" encoding="iso-8859-1"?>
<!-- Generator: Adobe Illustrator 19.0.0, SVG Export Plug-In . SVG Version: 6.00 Build 0)  -->
<svg version="1.1" id="Layer_1" xmlns="http://www.w3.org/2000/svg" xmlns:xlink="http://www.w3.org/1999/xlink" x="0px" y="0px"
	 viewBox="0 0 501.551 501.551" style="enable-background:new 0 0 501.551 501.551;" xml:space="preserve">
<rect x="17.763" y="50.155" style="fill:#F2F2F2;" width="466.024" height="281.078"/>
<g>
	<rect y="331.233" style="fill:#89D6F7;" width="501.551" height="50.155"/>
	<rect style="fill:#89D6F7;" width="501.551" height="50.155"/>
</g>
<polygon style="fill:#ACB3BA;" points="340.637,501.551 428.408,501.551 392.882,397.061 387.657,381.388 300.931,381.388 
	306.155,397.061 311.38,412.735 190.171,412.735 195.396,397.061 200.62,381.388 113.894,381.388 108.669,397.061 73.143,501.551 
	159.869,501.551 175.543,457.665 326.008,457.665 "/>
<rect x="17.763" y="50.155" style="fill:#E4EAEF;" width="466.024" height="15.673"/>
<g>
	<polygon style="fill:#9EAAB5;" points="200.62,381.388 195.396,397.061 108.669,397.061 113.894,381.388 	"/>
	<polygon style="fill:#9EAAB5;" points="392.882,397.061 306.155,397.061 300.931,381.388 387.657,381.388 	"/>
</g>
<polygon style="fill:#CDD6E0;" points="132.702,253.91 118.073,239.282 216.294,141.061 285.257,210.024 368.849,125.388 
	383.478,140.016 285.257,239.282 216.294,170.318 "/>
<circle style="fill:#FF7058;" cx="125.388" cy="246.596" r="25.078"/>
<circle style="fill:#FFD15C;" cx="216.294" cy="155.69" r="25.078"/>
<circle style="fill:#54C0EB;" cx="282.122" cy="221.518" r="25.078"/>
<circle style="fill:#4CDBC4;" cx="376.163" cy="134.792" r="25.078"/>
<g>
</g>
<g>
</g>
<g>
</g>
<g>
</g>
<g>
</g>
<g>
</g>
<g>
</g>
<g>
</g>
<g>
</g>
<g>
</g>
<g>
</g>
<g>
</g>
<g>
</g>
<g>
</g>
<g>
</g>
</svg>
