<svg height="511pt" viewBox="1 0 511.9995 511" width="511pt" xmlns="http://www.w3.org/2000/svg"><path d="m502 116.476562-80 80v-40c-72.644531 0-173.414062 0-246 0v-80h246v-40zm0 0" fill="#ff523d"/><path d="m336 482.476562v20h-160v-20c0-11.050781 8.949219-20 20-20h120c11.050781 0 20 8.949219 20 20zm0 0" fill="#854834"/><path d="m336 236.476562v80c-59.835938 0-186.230469 0-246 0v40l-80-80 80-80v40zm0 0" fill="#6aa89d"/><g fill="#854834"><path d="m236 316.476562h40v146h-40zm0 0"/><path d="m236 156.476562h40v80h-40zm0 0"/><path d="m276 18.757812v57.71875h-40v-57.71875c11.050781-11.042968 28.949219-11.042968 40 0zm0 0"/></g><path d="m422 106.476562c-5.519531 0-10 4.480469-10 10 0 5.519532 4.480469 10 10 10s10-4.480468 10-10c0-5.519531-4.480469-10-10-10zm0 0"/><path d="m90 266.476562c-5.519531 0-10 4.480469-10 10 0 5.519532 4.480469 10 10 10s10-4.480468 10-10c0-5.519531-4.480469-10-10-10zm0 0"/><path d="m196 266.476562h-66c-5.523438 0-10 4.476563-10 10 0 5.523438 4.476562 10 10 10h66c5.523438 0 10-4.476562 10-10 0-5.523437-4.476562-10-10-10zm0 0"/><path d="m429.070312 29.40625c-2.859374-2.859375-7.160156-3.714844-10.898437-2.167969-3.734375 1.546875-6.171875 5.195313-6.171875 9.238281v30h-126v-47.71875c0-2.652343-1.054688-5.199218-2.933594-7.074218-14.921875-14.910156-39.210937-14.910156-54.132812 0-1.878906 1.875-2.933594 4.421875-2.933594 7.074218v47.71875h-50c-5.523438 0-10 4.480469-10 10v80c0 5.523438 4.476562 10 10 10h50v60h-126v-30c0-4.042968-2.4375-7.691406-6.171875-9.238281-3.738281-1.542969-8.039063-.691406-10.898437 2.167969l-80 80c-3.90625 3.90625-3.90625 10.238281 0 14.144531l80 80c2.863281 2.863281 7.167968 3.710938 10.898437 2.167969 3.734375-1.550781 6.171875-5.195312 6.171875-9.238281v-30h126v126h-30c-16.542969 0-30 13.457031-30 30v10h-30c-5.523438 0-10 4.476562-10 10 0 5.519531 4.476562 10 10 10h240c5.523438 0 10-4.480469 10-10 0-5.523438-4.476562-10-10-10h-30v-10c0-16.542969-13.457031-30-30-30h-30v-126h50c5.523438 0 10-4.480469 10-10v-80c0-5.523438-4.476562-10-10-10h-50v-60h126v30c0 4.042969 2.4375 7.6875 6.171875 9.238281 3.746094 1.546875 8.042969.683594 10.898437-2.167969l80-80c3.90625-3.90625 3.90625-10.238281 0-14.144531zm-183.070312-5.957031c6.050781-3.949219 13.949219-3.949219 20 0v43.027343h-20zm80 459.027343v10h-140v-10c0-5.515624 4.484375-10 10-10h120c5.515625 0 10 4.488282 10 10zm-60-30h-20v-126h20zm60-146h-236c-5.523438 0-10 4.476563-10 10v15.855469l-55.859375-55.855469 55.859375-55.855468v15.855468c0 5.523438 4.476562 10 10 10h236zm-60-80h-20v-60h20zm166-54.140624v-15.859376c0-5.519531-4.476562-10-10-10h-236v-60h236c5.523438 0 10-4.476562 10-10v-15.855468l55.859375 55.855468zm0 0"/><path d="m382 106.476562h-66c-5.523438 0-10 4.476563-10 10 0 5.523438 4.476562 10 10 10h66c5.523438 0 10-4.476562 10-10 0-5.523437-4.476562-10-10-10zm0 0"/></svg>