<?xml version="1.0" encoding="iso-8859-1"?>
<!-- Generator: Adobe Illustrator 19.0.0, SVG Export Plug-In . SVG Version: 6.00 Build 0)  -->
<svg version="1.1" id="Capa_1" xmlns="http://www.w3.org/2000/svg" xmlns:xlink="http://www.w3.org/1999/xlink" x="0px" y="0px"
	 viewBox="0 0 390 390" style="enable-background:new 0 0 390 390;" xml:space="preserve">
<g id="XMLID_1272_">
	<path id="XMLID_1294_" style="fill:#CDCDD0;" d="M70,390h33.394l32.002-69.565c-9.555-3.469-18.681-7.826-27.289-12.965L70,390z"/>
	<path id="XMLID_1295_" style="fill:#CDCDD0;" d="M276.606,390H310l-38.107-82.529c-8.608,5.139-17.734,9.496-27.289,12.965
		L276.606,390z"/>
	<path id="XMLID_1296_" style="fill:#A2001D;" d="M70,170c0-66.273,53.726-120,120-120V10C101.634,10,30,81.635,30,170
		c0,58.436,31.332,109.546,78.107,137.471c8.607,5.139,17.734,9.496,27.289,12.965C152.436,326.622,170.823,330,190,330v-40
		C123.726,290,70,236.273,70,170z"/>
	<path id="XMLID_1297_" style="fill:#6C0014;" d="M263.58,75.206l8.031-8.031l3.536-24.748l4.777-4.777
		C254.296,20.203,223.341,10,190,10v40C217.73,50,243.26,59.41,263.58,75.206z"/>
	<path id="XMLID_1298_" style="fill:#6C0014;" d="M350,170c0-33.341-10.203-64.297-27.649-89.925l-4.777,4.777l-24.748,3.536
		l-8.032,8.031C300.589,116.74,310,142.27,310,170c0,66.273-53.726,120-120,120v40c19.177,0,37.564-3.378,54.604-9.565
		c9.555-3.469,18.681-7.826,27.289-12.965C318.668,279.546,350,228.436,350,170z"/>
	<path id="XMLID_1299_" style="fill:#FF5023;" d="M270,170c0,44.182-35.817,80-80,80s-80-35.818-80-80c0-44.184,35.817-80,80-80
		c16.67,0,32.145,5.104,44.96,13.826l28.62-28.62C243.26,59.41,217.73,50,190,50c-66.274,0-120,53.727-120,120
		c0,66.273,53.726,120,120,120s120-53.727,120-120c0-27.73-9.411-53.26-25.207-73.58l-28.62,28.62
		C264.896,137.854,270,153.33,270,170z"/>
	<path id="XMLID_1300_" style="fill:#FF9811;" d="M110,170c0,44.182,35.817,80,80,80s80-35.818,80-80
		c0-16.67-5.104-32.146-13.827-44.96l-29.34,29.339c2.038,4.8,3.167,10.078,3.167,15.621c0,22.091-17.909,40-40,40s-40-17.909-40-40
		c0-22.092,17.909-40,40-40c5.542,0,10.821,1.129,15.62,3.166l29.34-29.34C222.145,95.104,206.67,90,190,90
		C145.817,90,110,125.816,110,170z"/>
	<path id="XMLID_1301_" style="fill:#FFDA44;" d="M150,170c0,22.091,17.909,40,40,40s40-17.909,40-40
		c0-5.543-1.128-10.821-3.167-15.621l-22.397,22.397c-5.858,5.858-15.356,5.858-21.214,0c-5.858-5.857-5.857-15.355,0-21.213
		l22.397-22.398C200.821,131.129,195.542,130,190,130C167.909,130,150,147.908,150,170z"/>
	<path id="XMLID_1302_" style="fill:#FFFFFF;" d="M268.076,91.924l3.536-24.749l-8.031,8.031l-28.62,28.62l-29.34,29.34
		l-22.397,22.398c-5.858,5.857-5.858,15.355,0,21.213c5.858,5.858,15.356,5.858,21.214,0l22.397-22.397l29.34-29.339l28.62-28.62
		l8.032-8.031L268.076,91.924z"/>
	<polygon id="XMLID_1303_" style="fill:#00D7DF;" points="271.611,67.175 268.076,91.924 310.502,49.497 317.574,0 279.924,37.649 
		275.147,42.427 	"/>
	<polygon id="XMLID_1304_" style="fill:#00A1A7;" points="268.076,91.924 292.825,88.389 317.573,84.853 322.351,80.075 360,42.427 
		310.502,49.497 	"/>
</g>
<g>
</g>
<g>
</g>
<g>
</g>
<g>
</g>
<g>
</g>
<g>
</g>
<g>
</g>
<g>
</g>
<g>
</g>
<g>
</g>
<g>
</g>
<g>
</g>
<g>
</g>
<g>
</g>
<g>
</g>
</svg>
