<svg id="svg" version="1.1" xmlns="http://www.w3.org/2000/svg" xmlns:xlink="http://www.w3.org/1999/xlink" width="400" height="124.97096399535424" viewBox="0, 0, 400,124.97096399535424"><g id="svgg"><path id="path0" d="M11.707 9.602 C 11.592 9.653,11.540 9.764,11.592 9.848 C 11.671 9.975,11.212 10.079,10.807 10.025 C 10.747 10.017,10.655 10.125,10.601 10.264 C 10.539 10.427,10.572 10.475,10.694 10.400 C 10.813 10.326,10.839 10.356,10.764 10.477 C 10.698 10.584,10.581 10.633,10.504 10.586 C 10.427 10.538,10.169 10.730,9.932 11.012 C 9.694 11.295,9.500 11.468,9.500 11.398 C 9.500 11.327,9.396 11.412,9.269 11.586 C 9.141 11.760,9.071 11.990,9.111 12.097 C 9.152 12.203,9.069 12.335,8.926 12.390 C 8.765 12.452,8.666 12.697,8.664 13.036 C 8.662 13.399,8.614 13.509,8.521 13.361 C 8.403 13.176,8.367 13.176,8.301 13.361 C 8.188 13.676,8.158 17.128,8.270 16.874 C 8.431 16.508,8.667 16.833,8.667 17.421 C 8.667 17.827,8.809 18.134,9.167 18.500 C 9.442 18.781,9.667 19.084,9.667 19.172 C 9.667 19.261,9.741 19.333,9.831 19.333 C 10.055 19.333,10.665 19.868,10.587 19.994 C 10.552 20.050,10.711 20.111,10.940 20.130 C 11.168 20.149,11.468 20.278,11.606 20.416 C 11.744 20.554,12.106 20.667,12.411 20.667 C 12.749 20.667,13.002 20.764,13.060 20.917 C 13.113 21.054,13.238 21.167,13.338 21.167 C 13.438 21.167,13.473 21.092,13.417 21.000 C 13.360 20.908,13.393 20.833,13.490 20.833 C 13.587 20.833,13.667 20.913,13.667 21.010 C 13.667 21.261,14.373 21.132,14.637 20.833 C 14.759 20.696,14.811 20.677,14.753 20.792 C 14.694 20.906,14.720 21.000,14.810 21.000 C 14.899 21.000,14.999 20.920,15.032 20.822 C 15.064 20.724,15.384 20.627,15.742 20.607 C 16.100 20.587,16.424 20.479,16.461 20.368 C 16.498 20.257,16.722 20.167,16.958 20.167 C 17.195 20.167,17.347 20.125,17.295 20.073 C 17.182 19.960,17.951 19.167,18.174 19.167 C 18.262 19.167,18.333 19.092,18.333 19.000 C 18.333 18.908,18.430 18.833,18.548 18.833 C 18.666 18.833,18.775 18.671,18.790 18.473 C 18.804 18.275,18.893 18.066,18.987 18.008 C 19.081 17.950,19.184 17.736,19.215 17.532 C 19.246 17.329,19.360 17.073,19.469 16.964 C 19.717 16.716,19.746 13.333,19.500 13.333 C 19.408 13.333,19.333 13.189,19.333 13.012 C 19.333 12.835,19.221 12.578,19.083 12.440 C 18.946 12.303,18.833 12.081,18.833 11.946 C 18.833 11.812,18.721 11.659,18.583 11.606 C 18.446 11.554,18.333 11.398,18.333 11.260 C 18.333 11.107,18.237 11.047,18.083 11.106 C 17.913 11.172,17.833 11.097,17.833 10.870 C 17.833 10.655,17.730 10.545,17.542 10.560 C 17.381 10.573,17.268 10.491,17.291 10.378 C 17.313 10.265,17.126 10.123,16.874 10.063 C 16.622 10.003,16.311 9.871,16.183 9.769 C 15.941 9.577,12.088 9.433,11.707 9.602 M32.333 20.418 C 32.333 20.660,31.910 20.744,31.042 20.673 C 30.799 20.654,30.667 20.735,30.667 20.905 C 30.667 21.093,30.503 21.167,30.083 21.167 C 29.720 21.167,29.500 21.247,29.500 21.380 C 29.500 21.561,28.716 22.003,28.286 22.064 C 28.213 22.075,28.085 22.195,28.001 22.332 C 27.916 22.469,27.713 22.581,27.549 22.582 C 27.384 22.583,27.267 22.673,27.288 22.782 C 27.309 22.891,27.177 23.027,26.994 23.085 C 26.811 23.143,26.705 23.260,26.757 23.345 C 26.810 23.430,26.736 23.500,26.593 23.500 C 26.450 23.500,26.333 23.613,26.333 23.750 C 26.333 23.887,26.221 24.009,26.083 24.021 C 25.507 24.069,25.419 24.108,25.458 24.299 C 25.481 24.410,25.388 24.500,25.250 24.500 C 25.032 24.500,24.916 24.804,24.980 25.208 C 24.991 25.277,24.888 25.333,24.750 25.333 C 24.613 25.333,24.500 25.434,24.500 25.558 C 24.500 25.882,23.888 26.387,23.663 26.248 C 23.535 26.169,23.488 26.260,23.522 26.523 C 23.584 27.004,23.375 27.379,23.129 27.227 C 23.024 27.162,22.996 27.192,23.064 27.302 C 23.127 27.404,23.019 27.648,22.823 27.844 C 22.600 28.067,22.494 28.340,22.540 28.577 C 22.585 28.815,22.504 29.021,22.320 29.137 C 22.134 29.253,22.060 29.443,22.117 29.660 C 22.169 29.860,22.125 30.000,22.010 30.000 C 21.902 30.000,21.860 30.075,21.917 30.167 C 21.973 30.258,21.940 30.333,21.843 30.333 C 21.746 30.333,21.667 30.663,21.667 31.071 C 21.667 31.503,21.564 31.913,21.418 32.058 C 21.041 32.435,21.041 97.416,21.418 97.561 C 21.592 97.628,21.667 97.905,21.667 98.486 C 21.667 99.085,21.744 99.360,21.942 99.471 C 22.119 99.570,22.184 99.750,22.124 99.979 C 22.073 100.174,22.100 100.376,22.185 100.428 C 22.270 100.480,22.288 100.604,22.227 100.704 C 22.164 100.805,22.192 100.837,22.290 100.777 C 22.508 100.642,22.672 101.039,22.585 101.492 C 22.548 101.683,22.607 101.833,22.719 101.833 C 22.830 101.833,23.013 101.983,23.128 102.167 C 23.264 102.384,23.274 102.500,23.158 102.500 C 23.060 102.500,23.027 102.576,23.085 102.669 C 23.143 102.763,23.260 102.796,23.345 102.743 C 23.430 102.690,23.500 102.799,23.500 102.985 C 23.500 103.217,23.578 103.293,23.750 103.227 C 23.925 103.160,24.000 103.240,24.000 103.492 C 24.000 103.691,24.069 103.810,24.153 103.758 C 24.237 103.706,24.357 103.895,24.419 104.177 C 24.495 104.524,24.607 104.661,24.766 104.600 C 24.895 104.551,25.000 104.581,25.000 104.668 C 25.000 104.755,25.395 105.221,25.879 105.705 C 26.362 106.188,26.776 106.658,26.799 106.750 C 26.821 106.842,26.970 106.924,27.128 106.934 C 27.754 106.971,27.849 107.006,27.750 107.167 C 27.693 107.258,27.797 107.333,27.980 107.333 C 28.164 107.333,28.367 107.420,28.433 107.526 C 28.511 107.653,28.478 107.673,28.333 107.583 C 28.186 107.492,28.155 107.513,28.240 107.650 C 28.308 107.760,28.451 107.819,28.557 107.781 C 28.663 107.742,28.874 107.818,29.027 107.951 C 29.179 108.083,29.554 108.230,29.860 108.278 C 30.166 108.326,30.477 108.470,30.550 108.599 C 30.623 108.728,30.923 108.834,31.217 108.836 C 31.622 108.838,31.690 108.877,31.500 109.000 C 31.292 109.135,31.306 109.165,31.583 109.180 C 33.102 109.262,33.736 109.339,33.819 109.452 C 33.873 109.524,34.029 109.621,34.167 109.667 C 34.731 109.855,94.048 109.834,94.275 109.646 C 94.439 109.510,94.500 109.509,94.500 109.644 C 94.500 109.746,94.688 109.814,94.917 109.795 C 95.146 109.776,95.333 109.694,95.333 109.612 C 95.333 109.531,95.450 109.509,95.592 109.564 C 95.734 109.618,95.810 109.597,95.761 109.517 C 95.633 109.311,96.118 109.214,97.042 109.259 C 97.626 109.288,97.833 109.237,97.833 109.066 C 97.833 108.925,98.009 108.833,98.279 108.833 C 98.523 108.833,98.853 108.717,99.010 108.574 C 99.167 108.432,99.452 108.304,99.644 108.289 C 99.835 108.275,100.028 108.166,100.074 108.048 C 100.119 107.930,100.346 107.833,100.578 107.833 C 100.830 107.833,101.000 107.739,101.000 107.598 C 101.000 107.446,101.147 107.379,101.417 107.408 C 101.646 107.434,101.833 107.401,101.833 107.336 C 101.833 107.046,102.495 106.497,102.883 106.465 C 103.117 106.445,103.273 106.371,103.229 106.299 C 103.126 106.133,103.931 105.320,104.066 105.455 C 104.163 105.552,104.234 105.234,104.180 104.938 C 104.165 104.858,104.269 104.837,104.410 104.891 C 104.593 104.961,104.667 104.884,104.669 104.620 C 104.671 104.320,104.702 104.297,104.833 104.500 C 104.922 104.638,105.005 104.694,105.018 104.625 C 105.031 104.556,105.060 104.425,105.083 104.333 C 105.106 104.242,105.134 104.054,105.146 103.917 C 105.157 103.779,105.270 103.667,105.397 103.667 C 105.524 103.667,105.669 103.509,105.719 103.317 C 105.778 103.093,105.885 103.012,106.015 103.093 C 106.160 103.182,106.193 103.117,106.128 102.869 C 106.069 102.645,106.153 102.413,106.362 102.224 C 106.543 102.061,106.653 101.797,106.609 101.632 C 106.566 101.468,106.621 101.333,106.730 101.333 C 106.840 101.333,106.941 101.175,106.956 100.981 C 106.970 100.788,107.099 100.501,107.241 100.343 C 107.383 100.186,107.500 99.825,107.500 99.542 C 107.500 99.259,107.588 98.998,107.695 98.963 C 107.803 98.927,107.921 98.527,107.959 98.074 C 107.996 97.621,108.132 97.133,108.260 96.991 C 108.626 96.584,108.616 32.333,108.250 32.333 C 107.998 32.333,107.941 32.051,107.994 31.064 C 108.012 30.727,107.930 30.509,107.761 30.444 C 107.594 30.380,107.500 30.137,107.500 29.773 C 107.500 29.419,107.405 29.166,107.250 29.106 C 107.112 29.054,107.000 28.856,107.000 28.667 C 107.000 28.478,106.906 28.287,106.792 28.243 C 106.677 28.199,106.571 27.960,106.557 27.711 C 106.543 27.463,106.449 27.233,106.349 27.200 C 106.249 27.166,106.167 27.073,106.167 26.992 C 106.167 26.911,105.918 26.595,105.613 26.291 C 105.309 25.987,105.090 25.647,105.127 25.535 C 105.164 25.424,105.076 25.333,104.931 25.333 C 104.785 25.333,104.667 25.253,104.667 25.155 C 104.667 24.971,104.260 24.500,104.101 24.500 C 103.943 24.500,102.833 23.328,102.833 23.161 C 102.833 23.073,102.716 23.000,102.573 23.000 C 102.431 23.000,102.356 22.931,102.408 22.847 C 102.460 22.763,102.277 22.644,102.001 22.584 C 101.726 22.523,101.500 22.404,101.500 22.320 C 101.500 22.236,101.350 22.167,101.167 22.167 C 100.983 22.167,100.833 22.098,100.833 22.015 C 100.833 21.788,99.459 21.167,98.957 21.167 C 98.717 21.167,98.466 21.080,98.401 20.974 C 98.327 20.855,98.355 20.827,98.474 20.901 C 98.580 20.966,98.667 20.940,98.667 20.843 C 98.667 20.745,98.333 20.667,97.917 20.667 C 97.500 20.667,97.167 20.588,97.167 20.490 C 97.167 20.393,97.092 20.360,97.000 20.417 C 96.908 20.473,96.833 20.441,96.833 20.346 C 96.833 20.226,86.845 20.172,64.583 20.171 C 36.133 20.170,32.333 20.200,32.333 20.418 M362.875 24.109 C 362.714 24.175,362.667 25.582,362.667 30.347 L 362.667 36.500 358.905 36.500 C 355.911 36.500,355.095 36.547,354.911 36.732 C 354.721 36.922,354.679 38.045,354.682 42.899 L 354.685 48.833 355.134 48.839 C 355.381 48.843,357.177 48.840,359.125 48.834 L 362.667 48.822 362.692 60.786 C 362.720 74.056,362.701 72.993,362.918 73.333 C 363.005 73.471,363.098 73.996,363.125 74.500 C 363.152 75.004,363.290 75.666,363.433 75.970 C 363.576 76.274,363.654 76.625,363.607 76.749 C 363.559 76.874,363.628 77.065,363.760 77.175 C 363.892 77.284,364.000 77.587,364.000 77.847 C 364.000 78.108,364.152 78.462,364.338 78.635 C 364.544 78.827,364.634 79.057,364.570 79.225 C 364.499 79.410,364.552 79.500,364.732 79.500 C 364.980 79.500,365.079 79.780,365.012 80.292 C 364.998 80.406,365.074 80.500,365.181 80.500 C 365.474 80.500,366.024 81.198,365.927 81.449 C 365.881 81.569,365.954 81.667,366.089 81.667 C 366.223 81.667,366.333 81.774,366.333 81.905 C 366.333 82.037,366.483 82.192,366.667 82.250 C 366.850 82.308,367.000 82.421,367.000 82.500 C 367.000 82.665,368.770 84.409,368.959 84.431 C 369.305 84.471,369.667 84.729,369.667 84.934 C 369.667 85.062,369.760 85.148,369.875 85.125 C 369.990 85.102,370.063 85.182,370.038 85.303 C 370.009 85.444,370.126 85.503,370.364 85.469 C 370.624 85.433,370.800 85.542,370.949 85.833 C 371.066 86.063,371.163 86.163,371.164 86.057 C 371.167 85.827,371.860 85.968,372.036 86.235 C 372.160 86.425,372.233 86.445,372.917 86.479 C 373.167 86.492,373.333 86.600,373.333 86.750 C 373.333 86.918,373.501 87.000,373.843 87.000 C 374.141 87.000,374.310 87.069,374.250 87.167 C 374.193 87.258,374.301 87.343,374.490 87.354 C 374.679 87.366,374.908 87.394,375.000 87.417 C 375.092 87.440,375.471 87.468,375.843 87.479 C 376.247 87.492,376.478 87.567,376.417 87.667 C 376.313 87.834,377.009 87.907,378.500 87.887 C 378.961 87.881,379.300 87.963,379.381 88.101 C 379.554 88.397,386.011 88.418,386.194 88.123 C 386.266 88.006,386.921 87.924,387.900 87.909 C 388.843 87.894,389.585 87.803,389.727 87.686 C 389.857 87.577,390.314 87.482,390.742 87.473 C 391.169 87.464,391.622 87.354,391.748 87.229 C 391.873 87.103,392.169 87.000,392.405 87.000 L 392.833 87.000 392.819 81.014 L 392.805 75.029 390.236 75.018 C 388.076 75.009,387.667 75.047,387.667 75.254 C 387.667 75.632,384.080 75.614,383.868 75.235 C 383.787 75.089,383.671 74.977,383.610 74.985 C 382.946 75.075,381.335 74.966,381.415 74.837 C 381.471 74.745,381.212 74.625,380.827 74.563 C 380.448 74.502,380.099 74.351,380.052 74.227 C 380.004 74.103,379.900 74.042,379.820 74.091 C 379.741 74.141,379.548 74.032,379.391 73.849 C 379.235 73.666,379.046 73.555,378.970 73.602 C 378.895 73.648,378.833 73.569,378.833 73.427 C 378.833 73.284,378.752 73.167,378.652 73.167 C 378.390 73.167,377.845 72.468,377.839 72.125 C 377.836 71.965,377.768 71.833,377.689 71.833 C 377.609 71.833,377.501 71.516,377.449 71.129 C 377.397 70.741,377.275 70.397,377.177 70.365 C 377.054 70.324,377.000 67.011,377.000 59.563 L 377.000 48.821 383.848 48.840 C 387.615 48.851,390.746 48.810,390.807 48.749 C 390.944 48.612,391.029 37.102,390.895 36.754 C 390.810 36.532,389.924 36.500,383.899 36.500 L 377.000 36.500 376.979 30.667 C 376.968 27.458,376.940 24.758,376.917 24.667 C 376.894 24.575,376.866 24.391,376.854 24.257 C 376.833 24.016,363.446 23.874,362.875 24.109 M93.667 30.050 C 93.667 30.167,93.823 30.274,94.013 30.289 C 94.204 30.303,94.474 30.409,94.613 30.525 C 94.753 30.641,94.991 30.753,95.142 30.775 C 95.293 30.797,95.701 31.119,96.048 31.491 C 96.395 31.863,96.763 32.167,96.867 32.167 C 96.971 32.167,97.011 32.212,96.956 32.267 C 96.901 32.322,97.076 32.581,97.345 32.844 C 97.613 33.107,97.833 33.475,97.833 33.661 C 97.833 33.851,97.943 34.000,98.083 34.000 C 98.473 34.000,98.462 95.180,98.073 95.570 C 97.929 95.713,97.859 95.907,97.917 96.000 C 97.974 96.093,97.871 96.225,97.687 96.293 C 97.358 96.415,97.333 96.456,97.333 96.879 C 97.333 97.315,95.904 98.667,95.443 98.667 C 95.153 98.667,95.000 98.756,95.000 98.927 C 95.000 99.069,94.937 99.148,94.860 99.100 C 94.784 99.053,94.561 99.126,94.365 99.263 C 93.965 99.543,35.539 99.649,35.346 99.370 C 35.220 99.188,34.124 98.741,33.944 98.798 C 33.867 98.823,33.765 98.691,33.716 98.505 C 33.668 98.319,33.562 98.167,33.482 98.167 C 33.212 98.167,32.510 97.451,32.615 97.282 C 32.675 97.185,32.634 97.167,32.515 97.241 C 32.279 97.387,31.847 96.892,31.839 96.467 C 31.836 96.311,31.715 96.117,31.569 96.036 C 31.388 95.934,31.306 95.647,31.306 95.119 C 31.306 94.660,31.211 94.272,31.069 94.155 C 30.698 93.847,30.716 36.035,31.088 35.892 C 31.260 35.826,31.290 35.732,31.180 35.600 C 31.080 35.479,31.078 35.313,31.174 35.161 C 31.259 35.027,31.329 34.718,31.331 34.476 C 31.332 34.234,31.446 33.992,31.583 33.940 C 31.721 33.887,31.833 33.691,31.833 33.505 C 31.833 33.309,31.943 33.167,32.095 33.167 C 32.280 33.167,32.325 33.070,32.250 32.833 C 32.180 32.612,32.231 32.465,32.402 32.399 C 32.544 32.345,32.820 32.041,33.017 31.723 C 33.241 31.360,33.462 31.180,33.612 31.238 C 33.764 31.296,33.807 31.259,33.731 31.136 C 33.651 31.006,33.705 30.979,33.898 31.053 C 34.068 31.118,34.143 31.096,34.082 30.998 C 34.026 30.907,34.089 30.833,34.222 30.833 C 34.355 30.833,34.508 30.721,34.560 30.583 C 34.617 30.435,34.867 30.333,35.173 30.333 C 35.458 30.333,35.802 30.222,35.939 30.085 C 36.284 29.740,93.667 29.704,93.667 30.050 M146.706 35.756 C 146.614 35.922,146.172 36.005,145.204 36.037 C 144.328 36.067,143.834 36.151,143.834 36.271 C 143.833 36.469,142.891 36.722,142.667 36.584 C 142.594 36.539,142.492 36.614,142.439 36.751 C 142.381 36.904,142.126 37.000,141.780 37.000 C 141.428 37.000,141.060 37.141,140.804 37.375 C 140.577 37.581,140.247 37.776,140.071 37.808 C 139.894 37.839,139.690 37.970,139.617 38.099 C 139.543 38.228,139.378 38.333,139.250 38.333 C 139.122 38.333,138.957 38.439,138.883 38.567 C 138.810 38.696,138.563 38.829,138.333 38.863 C 138.101 38.897,137.937 39.020,137.962 39.141 C 137.988 39.261,137.937 39.314,137.849 39.260 C 137.761 39.205,137.584 39.312,137.455 39.496 C 137.326 39.680,137.171 39.782,137.110 39.721 C 137.050 39.661,137.000 39.703,137.000 39.814 C 137.000 39.926,136.775 40.096,136.500 40.192 C 136.225 40.287,136.042 40.433,136.093 40.516 C 136.145 40.599,136.107 40.667,136.010 40.667 C 135.896 40.667,135.833 39.998,135.833 38.783 C 135.833 37.541,135.765 36.832,135.633 36.700 C 135.327 36.393,123.278 36.415,123.023 36.723 C 122.758 37.042,122.756 86.456,123.021 86.775 C 123.172 86.957,124.548 87.000,130.267 87.000 L 137.326 87.000 137.324 71.083 C 137.323 60.448,137.379 55.059,137.495 54.844 C 137.589 54.667,137.667 54.404,137.667 54.261 C 137.667 54.117,137.736 54.000,137.820 54.000 C 137.904 54.000,138.024 53.770,138.086 53.488 C 138.167 53.121,138.270 53.004,138.453 53.074 C 138.643 53.147,138.685 53.087,138.618 52.833 C 138.570 52.647,138.617 52.398,138.723 52.281 C 139.426 51.507,139.722 51.129,139.542 51.233 C 139.427 51.299,139.333 51.307,139.333 51.251 C 139.333 51.195,139.596 51.040,139.917 50.906 C 140.237 50.772,140.500 50.588,140.500 50.498 C 140.500 50.407,140.612 50.333,140.750 50.333 C 140.887 50.333,141.000 50.221,141.000 50.083 C 141.000 49.943,141.149 49.833,141.339 49.833 C 141.525 49.833,141.721 49.718,141.776 49.577 C 141.843 49.400,142.024 49.343,142.354 49.395 C 142.720 49.453,142.833 49.405,142.834 49.194 C 142.834 48.975,143.016 48.910,143.705 48.886 C 144.184 48.870,144.602 48.776,144.635 48.678 C 144.725 48.409,147.679 48.438,147.625 48.708 C 147.597 48.851,147.824 48.917,148.340 48.917 C 148.756 48.917,149.281 49.037,149.506 49.184 C 149.732 49.330,150.048 49.431,150.209 49.406 C 150.370 49.382,150.459 49.432,150.406 49.517 C 150.354 49.601,150.536 49.715,150.810 49.770 C 151.145 49.837,151.280 49.946,151.220 50.102 C 151.168 50.236,151.236 50.333,151.381 50.333 C 151.519 50.333,151.677 50.454,151.734 50.601 C 151.792 50.753,151.943 50.827,152.085 50.773 C 152.236 50.715,152.333 50.773,152.333 50.922 C 152.333 51.057,152.443 51.167,152.578 51.167 C 152.727 51.167,152.785 51.264,152.727 51.417 C 152.666 51.575,152.729 51.667,152.899 51.667 C 153.046 51.667,153.167 51.779,153.167 51.917 C 153.167 52.054,153.273 52.167,153.402 52.167 C 153.554 52.167,153.621 52.314,153.592 52.583 C 153.566 52.813,153.614 53.000,153.698 53.000 C 153.782 53.000,153.929 53.225,154.025 53.500 C 154.121 53.775,154.267 54.000,154.350 54.000 C 154.432 54.000,154.500 54.294,154.500 54.653 C 154.500 55.505,154.659 55.947,154.854 55.639 C 154.931 55.517,154.996 62.522,154.997 71.206 L 155.000 86.996 162.169 86.991 L 169.339 86.986 169.330 69.828 C 169.324 56.455,169.277 52.679,169.119 52.710 C 168.977 52.738,168.902 52.357,168.868 51.434 C 168.837 50.625,168.725 49.985,168.576 49.772 C 168.442 49.582,168.333 49.151,168.333 48.814 C 168.333 48.436,168.242 48.167,168.094 48.111 C 167.954 48.057,167.861 47.810,167.869 47.515 C 167.877 47.238,167.808 46.915,167.715 46.797 C 167.622 46.680,167.497 46.377,167.436 46.125 C 167.376 45.873,167.253 45.667,167.163 45.667 C 167.074 45.667,167.000 45.479,167.000 45.250 C 167.000 44.999,166.905 44.833,166.761 44.833 C 166.624 44.833,166.500 44.637,166.469 44.375 C 166.437 44.091,166.329 43.935,166.187 43.965 C 166.030 43.999,165.986 43.906,166.047 43.672 C 166.108 43.439,166.030 43.272,165.805 43.152 C 165.604 43.044,165.513 42.874,165.572 42.719 C 165.641 42.539,165.595 42.492,165.419 42.560 C 165.246 42.626,165.167 42.552,165.167 42.328 C 165.167 42.148,165.093 42.000,165.002 42.000 C 164.776 42.000,164.167 41.463,164.167 41.264 C 164.167 41.018,163.302 40.167,163.052 40.167 C 162.932 40.167,162.833 40.054,162.833 39.917 C 162.833 39.779,162.721 39.667,162.583 39.667 C 162.446 39.667,162.333 39.592,162.333 39.500 C 162.333 39.408,162.221 39.333,162.083 39.333 C 161.946 39.333,161.833 39.258,161.833 39.167 C 161.833 38.950,161.220 38.336,161.112 38.444 C 161.024 38.532,159.649 37.837,159.490 37.623 C 159.438 37.554,158.998 37.357,158.512 37.186 C 158.026 37.015,157.581 36.807,157.523 36.723 C 157.464 36.640,157.117 36.550,156.750 36.524 C 156.383 36.498,156.000 36.370,155.898 36.239 C 155.771 36.074,155.369 36.000,154.601 36.000 C 153.797 36.000,153.465 35.935,153.399 35.765 C 153.266 35.417,146.900 35.410,146.706 35.756 M257.699 35.775 C 257.527 35.906,256.912 35.991,256.125 35.995 C 255.183 35.999,254.845 36.056,254.875 36.208 C 254.903 36.347,254.641 36.434,254.087 36.469 C 253.630 36.498,253.205 36.605,253.142 36.707 C 253.079 36.809,252.740 36.915,252.389 36.942 C 252.038 36.970,251.676 37.094,251.584 37.219 C 251.492 37.344,251.336 37.419,251.238 37.386 C 251.139 37.352,250.926 37.472,250.764 37.651 C 250.596 37.837,250.357 37.935,250.210 37.878 C 250.064 37.822,249.861 37.904,249.743 38.065 C 249.627 38.223,249.381 38.363,249.195 38.377 C 249.009 38.391,248.893 38.462,248.939 38.536 C 248.984 38.609,248.923 38.699,248.802 38.735 C 248.364 38.868,248.073 39.010,247.583 39.333 C 247.308 39.515,246.975 39.715,246.843 39.778 C 246.481 39.952,245.528 40.973,245.632 41.076 C 245.682 41.126,245.527 41.167,245.288 41.167 C 245.049 41.167,244.799 41.253,244.734 41.359 C 244.655 41.486,244.689 41.506,244.833 41.417 C 244.978 41.327,245.011 41.347,244.933 41.474 C 244.867 41.580,244.668 41.667,244.490 41.667 C 244.312 41.667,244.185 41.760,244.208 41.875 C 244.233 41.997,244.119 42.061,243.936 42.029 C 243.717 41.991,243.650 42.049,243.715 42.218 C 243.828 42.514,243.400 43.167,243.092 43.167 C 242.969 43.167,242.824 43.284,242.769 43.427 C 242.714 43.571,242.588 43.638,242.490 43.577 C 242.392 43.516,242.325 43.568,242.342 43.692 C 242.404 44.144,242.328 44.333,242.083 44.333 C 241.946 44.333,241.833 44.446,241.833 44.583 C 241.833 44.721,241.756 44.833,241.663 44.833 C 241.569 44.833,241.420 45.021,241.333 45.250 C 241.246 45.479,241.106 45.667,241.023 45.667 C 240.939 45.667,240.881 45.798,240.894 45.958 C 240.906 46.119,240.823 46.231,240.708 46.208 C 240.579 46.182,240.500 46.356,240.500 46.667 C 240.500 47.000,240.417 47.167,240.250 47.167 C 240.112 47.167,240.000 47.279,240.000 47.417 C 240.000 47.554,239.896 47.667,239.769 47.667 C 239.641 47.667,239.541 47.760,239.545 47.875 C 239.566 48.437,239.477 48.667,239.240 48.667 C 239.097 48.667,239.022 48.734,239.073 48.816 C 239.233 49.075,238.969 50.000,238.734 50.000 C 238.611 50.000,238.548 50.099,238.595 50.219 C 238.641 50.340,238.564 50.659,238.424 50.928 C 238.283 51.197,238.168 51.743,238.168 52.143 C 238.167 52.689,238.110 52.847,237.938 52.781 C 237.763 52.714,237.708 52.904,237.702 53.605 C 237.698 54.106,237.601 54.628,237.488 54.765 C 237.239 55.065,237.205 55.394,237.183 57.708 C 237.169 59.292,237.133 59.502,236.875 59.513 C 236.690 59.522,236.662 59.558,236.799 59.613 C 236.965 59.679,236.969 59.753,236.818 59.935 C 236.594 60.206,236.735 61.670,237.001 61.834 C 237.094 61.892,237.180 62.880,237.197 64.093 C 237.228 66.364,237.275 66.723,237.517 66.573 C 237.669 66.479,237.724 66.979,237.671 67.958 C 237.647 68.389,237.695 68.479,237.904 68.398 C 238.120 68.316,238.167 68.436,238.167 69.075 C 238.167 69.513,238.235 69.811,238.322 69.757 C 238.540 69.622,238.646 69.849,238.694 70.556 C 238.717 70.898,238.823 71.167,238.935 71.167 C 239.048 71.167,239.100 71.301,239.055 71.475 C 239.010 71.645,239.074 71.892,239.195 72.024 C 239.552 72.413,240.000 73.334,240.000 73.680 C 240.000 73.856,240.112 74.000,240.250 74.000 C 240.389 74.000,240.500 74.148,240.500 74.333 C 240.500 74.661,241.038 75.333,241.301 75.333 C 241.375 75.333,241.420 75.558,241.401 75.833 C 241.378 76.167,241.444 76.333,241.600 76.333 C 241.728 76.333,241.833 76.446,241.833 76.583 C 241.833 76.721,241.946 76.833,242.083 76.833 C 242.221 76.833,242.333 76.908,242.333 77.000 C 242.333 77.092,242.446 77.167,242.583 77.167 C 242.721 77.167,242.833 77.271,242.833 77.399 C 242.833 77.527,242.951 77.676,243.094 77.731 C 243.237 77.786,243.313 77.899,243.262 77.981 C 243.210 78.064,243.275 78.173,243.405 78.222 C 243.535 78.272,243.667 78.486,243.699 78.698 C 243.732 78.910,243.852 79.064,243.967 79.040 C 244.082 79.016,244.219 79.110,244.272 79.247 C 244.325 79.385,244.433 79.458,244.511 79.410 C 244.590 79.361,244.807 79.474,244.994 79.661 C 245.181 79.847,245.408 80.000,245.500 80.000 C 245.592 80.000,245.648 80.066,245.625 80.147 C 245.602 80.227,245.790 80.486,246.042 80.722 C 246.294 80.958,246.500 81.222,246.500 81.310 C 246.500 81.397,246.636 81.433,246.803 81.389 C 246.990 81.341,247.317 81.507,247.654 81.822 C 247.955 82.103,248.344 82.333,248.518 82.333 C 248.691 82.333,248.833 82.446,248.833 82.583 C 248.833 82.740,248.991 82.833,249.255 82.833 C 249.487 82.833,249.718 82.940,249.768 83.071 C 249.819 83.202,250.008 83.281,250.188 83.246 C 250.370 83.211,250.558 83.291,250.609 83.425 C 250.661 83.558,250.911 83.667,251.167 83.667 C 251.422 83.667,251.668 83.763,251.713 83.880 C 251.758 83.997,252.039 84.111,252.337 84.134 C 252.955 84.181,253.208 84.299,253.093 84.484 C 253.049 84.555,253.329 84.631,253.715 84.654 C 254.101 84.676,254.510 84.701,254.625 84.709 C 254.740 84.716,254.833 84.806,254.833 84.908 C 254.833 85.023,255.263 85.110,255.951 85.135 C 256.612 85.159,257.121 85.259,257.195 85.379 C 257.386 85.688,264.801 85.695,264.973 85.387 C 265.054 85.242,265.491 85.154,266.237 85.133 C 266.885 85.114,267.466 85.010,267.585 84.891 C 267.700 84.776,268.098 84.665,268.470 84.643 C 268.842 84.621,269.113 84.547,269.071 84.480 C 268.960 84.301,269.215 84.181,269.799 84.136 C 270.080 84.115,270.274 84.038,270.229 83.965 C 270.184 83.893,270.283 83.822,270.448 83.808 C 270.614 83.794,270.850 83.775,270.973 83.765 C 271.095 83.755,271.293 83.613,271.413 83.450 C 271.571 83.234,271.751 83.182,272.066 83.260 C 272.381 83.340,272.500 83.305,272.500 83.132 C 272.500 83.002,272.800 82.726,273.167 82.520 C 273.533 82.314,273.833 82.075,273.833 81.989 C 273.833 81.904,273.946 81.833,274.083 81.833 C 274.221 81.833,274.333 81.729,274.333 81.601 C 274.333 81.341,274.782 81.115,275.015 81.259 C 275.098 81.311,275.167 81.236,275.167 81.093 C 275.167 80.950,275.246 80.833,275.343 80.833 C 275.440 80.833,275.481 80.771,275.434 80.694 C 275.387 80.618,275.457 80.556,275.591 80.556 C 275.898 80.556,275.939 83.887,275.641 84.614 C 275.535 84.872,275.422 85.421,275.390 85.833 C 275.356 86.270,275.221 86.666,275.066 86.781 C 274.920 86.889,274.841 87.044,274.891 87.126 C 274.942 87.207,274.829 87.405,274.642 87.566 C 274.444 87.736,274.334 87.985,274.380 88.161 C 274.434 88.367,274.328 88.525,274.054 88.650 C 273.831 88.752,273.687 88.898,273.735 88.976 C 273.783 89.053,273.640 89.214,273.417 89.333 C 273.194 89.453,273.054 89.619,273.106 89.703 C 273.158 89.787,273.044 89.897,272.852 89.947 C 272.660 89.997,272.545 90.104,272.595 90.186 C 272.645 90.267,272.581 90.333,272.451 90.333 C 272.322 90.333,272.044 90.558,271.834 90.832 C 271.560 91.189,271.345 91.312,271.075 91.263 C 270.804 91.214,270.674 91.289,270.610 91.531 C 270.555 91.743,270.447 91.821,270.319 91.741 C 270.204 91.670,270.034 91.728,269.927 91.875 C 269.823 92.017,269.553 92.160,269.327 92.192 C 269.101 92.224,268.862 92.325,268.794 92.417 C 268.718 92.520,268.671 92.504,268.669 92.375 C 268.668 92.260,268.592 92.167,268.500 92.167 C 268.408 92.167,268.333 92.279,268.333 92.417 C 268.333 92.597,268.148 92.667,267.667 92.667 C 267.199 92.667,267.000 92.738,267.000 92.905 C 267.000 93.105,266.616 93.132,264.667 93.068 C 263.175 93.020,262.333 93.053,262.333 93.159 C 262.333 93.260,262.186 93.272,261.958 93.191 C 261.752 93.117,261.100 93.044,260.510 93.029 C 259.920 93.014,259.395 92.940,259.344 92.865 C 259.292 92.790,258.918 92.711,258.512 92.689 C 257.710 92.646,257.449 92.550,257.576 92.345 C 257.621 92.272,257.350 92.212,256.973 92.212 C 256.513 92.212,256.239 92.123,256.136 91.939 C 256.035 91.759,255.761 91.667,255.325 91.667 C 254.881 91.667,254.667 91.593,254.667 91.440 C 254.667 91.288,254.529 91.239,254.250 91.293 C 254.007 91.339,253.833 91.295,253.833 91.186 C 253.833 91.084,253.720 91.000,253.582 91.000 C 253.443 91.000,253.202 90.850,253.045 90.667 C 252.888 90.483,252.588 90.333,252.380 90.333 C 252.153 90.333,252.000 90.232,252.000 90.083 C 252.000 89.926,251.841 89.833,251.571 89.833 C 251.137 89.833,250.585 89.422,250.582 89.095 C 250.581 88.997,250.375 88.925,250.123 88.935 C 249.841 88.946,249.667 88.866,249.667 88.726 C 249.667 88.602,249.554 88.500,249.417 88.500 C 249.279 88.500,249.167 88.388,249.167 88.250 C 249.167 88.082,248.999 88.000,248.657 88.000 C 248.376 88.000,248.190 87.930,248.243 87.845 C 248.295 87.760,248.191 87.644,248.011 87.587 C 247.831 87.530,247.719 87.392,247.762 87.280 C 247.816 87.137,247.593 87.078,247.001 87.080 C 246.400 87.082,246.186 87.142,246.243 87.292 C 246.287 87.406,246.250 87.500,246.161 87.500 C 246.073 87.500,246.000 87.612,246.000 87.750 C 246.000 87.888,245.925 88.000,245.833 88.000 C 245.742 88.000,245.667 88.080,245.667 88.177 C 245.667 88.275,245.442 88.544,245.167 88.776 C 244.892 89.007,244.667 89.302,244.667 89.431 C 244.667 89.706,244.080 90.333,243.823 90.333 C 243.726 90.333,243.690 90.402,243.742 90.487 C 243.794 90.571,243.727 90.749,243.593 90.883 C 243.459 91.017,243.390 91.168,243.441 91.219 C 243.491 91.269,243.375 91.408,243.183 91.529 C 242.991 91.649,242.833 91.841,242.833 91.957 C 242.833 92.072,242.729 92.167,242.601 92.167 C 242.474 92.167,242.324 92.347,242.269 92.568 C 242.213 92.789,241.912 93.234,241.599 93.556 C 241.286 93.878,240.981 94.298,240.920 94.490 C 240.859 94.681,240.740 94.795,240.655 94.743 C 240.570 94.690,240.500 94.839,240.500 95.073 C 240.500 95.308,240.415 95.500,240.311 95.500 C 239.978 95.500,239.500 96.203,239.500 96.692 C 239.500 96.953,239.578 97.167,239.673 97.167 C 239.768 97.167,240.179 97.510,240.586 97.929 C 240.993 98.348,241.402 98.644,241.495 98.587 C 241.587 98.529,241.624 98.583,241.577 98.706 C 241.526 98.840,241.618 98.938,241.812 98.953 C 242.161 98.979,243.359 100.085,243.206 100.239 C 243.154 100.291,243.307 100.333,243.547 100.333 C 243.787 100.333,244.043 100.427,244.117 100.542 C 244.273 100.786,244.793 101.135,245.208 101.274 C 245.369 101.328,245.500 101.485,245.500 101.622 C 245.500 101.791,245.609 101.844,245.836 101.784 C 246.021 101.736,246.275 101.799,246.400 101.924 C 246.525 102.049,246.673 102.104,246.730 102.048 C 246.787 101.991,246.833 102.032,246.833 102.139 C 246.833 102.246,246.988 102.333,247.177 102.333 C 247.365 102.333,247.473 102.408,247.417 102.500 C 247.360 102.592,247.374 102.672,247.448 102.679 C 247.987 102.728,248.425 102.868,248.472 103.005 C 248.503 103.094,248.711 103.167,248.936 103.167 C 249.160 103.167,249.387 103.279,249.440 103.417 C 249.503 103.581,249.763 103.667,250.194 103.667 C 250.578 103.667,250.811 103.734,250.753 103.828 C 250.698 103.917,250.862 104.041,251.118 104.104 C 251.374 104.167,251.633 104.294,251.694 104.388 C 251.755 104.481,252.055 104.575,252.361 104.598 C 252.667 104.620,252.954 104.653,253.000 104.672 C 253.046 104.691,253.140 104.697,253.208 104.686 C 253.277 104.676,253.333 104.746,253.333 104.843 C 253.333 104.940,253.403 104.977,253.488 104.924 C 253.574 104.871,253.691 104.905,253.749 104.999 C 253.807 105.093,254.037 105.136,254.260 105.096 C 254.483 105.055,254.759 105.111,254.874 105.220 C 254.989 105.329,255.533 105.443,256.083 105.475 C 256.710 105.510,257.199 105.635,257.392 105.808 C 257.563 105.959,257.731 106.065,257.767 106.042 C 257.975 105.911,261.505 106.023,261.422 106.158 C 261.261 106.419,262.290 106.519,264.583 106.466 C 266.207 106.429,266.740 106.364,266.708 106.208 C 266.677 106.051,267.133 106.000,268.551 106.000 C 269.951 106.000,270.520 105.937,270.760 105.755 C 270.938 105.621,271.406 105.508,271.800 105.505 C 272.194 105.502,272.719 105.397,272.967 105.272 C 273.214 105.147,273.679 105.055,274.000 105.069 C 274.373 105.085,274.657 104.995,274.786 104.818 C 274.920 104.637,275.164 104.563,275.501 104.602 C 275.841 104.642,276.044 104.579,276.107 104.414 C 276.162 104.271,276.414 104.167,276.702 104.167 C 277.078 104.167,277.179 104.105,277.106 103.917 C 277.042 103.749,277.114 103.667,277.327 103.667 C 277.501 103.667,277.755 103.554,277.893 103.417 C 278.030 103.279,278.289 103.167,278.468 103.167 C 278.646 103.167,278.884 103.057,278.996 102.922 C 279.107 102.787,279.248 102.684,279.308 102.692 C 279.643 102.736,279.839 102.645,279.743 102.489 C 279.683 102.391,279.790 102.270,279.983 102.219 C 280.176 102.169,280.333 102.062,280.333 101.981 C 280.333 101.900,280.513 101.833,280.732 101.833 C 280.952 101.833,281.174 101.721,281.227 101.583 C 281.280 101.446,281.435 101.333,281.573 101.333 C 281.727 101.333,281.786 101.237,281.727 101.083 C 281.666 100.925,281.729 100.833,281.899 100.833 C 282.046 100.833,282.167 100.721,282.167 100.583 C 282.167 100.446,282.223 100.342,282.292 100.353 C 282.691 100.416,283.172 100.311,283.090 100.178 C 282.977 99.995,283.703 99.167,283.977 99.167 C 284.082 99.167,284.167 99.086,284.167 98.988 C 284.167 98.890,284.279 98.697,284.417 98.560 C 284.554 98.422,284.667 98.371,284.667 98.446 C 284.667 98.522,284.825 98.265,285.018 97.875 C 285.341 97.221,285.509 97.083,285.895 97.154 C 285.975 97.168,285.997 97.065,285.942 96.923 C 285.888 96.782,285.909 96.667,285.989 96.667 C 286.069 96.667,286.213 96.460,286.309 96.208 C 286.561 95.549,286.948 95.115,287.164 95.249 C 287.289 95.325,287.334 95.206,287.300 94.890 C 287.267 94.580,287.322 94.431,287.458 94.458 C 287.645 94.496,287.737 94.156,287.710 93.530 C 287.704 93.409,287.790 93.345,287.900 93.387 C 288.030 93.437,288.114 93.251,288.139 92.857 C 288.160 92.523,288.287 92.167,288.422 92.065 C 288.556 91.963,288.669 91.626,288.672 91.315 C 288.675 91.004,288.787 90.604,288.922 90.426 C 289.057 90.249,289.167 89.936,289.167 89.732 C 289.167 89.528,289.259 89.330,289.371 89.293 C 289.484 89.255,289.584 89.080,289.593 88.904 C 289.602 88.728,289.622 88.227,289.638 87.792 C 289.658 87.234,289.736 87.000,289.903 87.000 C 290.150 87.000,290.316 37.416,290.070 36.776 C 289.974 36.526,289.369 36.500,283.566 36.500 L 277.167 36.500 277.164 39.542 C 277.163 41.390,277.103 42.491,277.013 42.348 C 276.931 42.219,276.899 42.022,276.942 41.911 C 276.986 41.797,276.833 41.661,276.593 41.601 C 276.359 41.542,276.167 41.421,276.167 41.332 C 276.167 41.096,275.627 40.505,275.490 40.590 C 275.425 40.630,275.281 40.443,275.170 40.176 C 275.043 39.869,274.883 39.722,274.736 39.779 C 274.608 39.828,274.457 39.748,274.400 39.601 C 274.344 39.454,274.231 39.333,274.150 39.333 C 273.878 39.333,273.177 38.619,273.282 38.449 C 273.345 38.346,273.244 38.318,273.024 38.375 C 272.775 38.441,272.610 38.373,272.495 38.158 C 272.403 37.986,272.227 37.885,272.102 37.932 C 271.978 37.980,271.755 37.897,271.606 37.749 C 271.457 37.600,271.136 37.442,270.892 37.398 C 270.648 37.354,270.291 37.231,270.099 37.125 C 269.907 37.018,269.628 36.950,269.479 36.973 C 269.330 36.995,269.163 36.898,269.109 36.757 C 269.040 36.577,268.781 36.500,268.250 36.500 C 267.783 36.500,267.458 36.417,267.407 36.285 C 267.354 36.146,266.940 36.057,266.231 36.033 C 265.505 36.007,265.050 35.908,264.878 35.735 C 264.534 35.391,258.157 35.427,257.699 35.775 M322.772 35.754 C 322.698 35.944,322.355 36.000,321.255 36.000 C 320.207 36.000,319.844 36.055,319.875 36.208 C 319.903 36.346,319.652 36.434,319.138 36.467 C 318.710 36.495,318.270 36.626,318.160 36.759 C 318.048 36.893,317.674 37.000,317.313 37.000 C 316.957 37.000,316.667 37.075,316.667 37.167 C 316.667 37.258,316.479 37.333,316.250 37.333 C 315.991 37.333,315.833 37.428,315.833 37.583 C 315.833 37.733,315.680 37.833,315.450 37.833 C 315.239 37.833,314.966 37.927,314.842 38.042 C 314.660 38.211,314.643 38.203,314.754 38.000 C 314.860 37.807,314.818 37.813,314.570 38.029 C 314.394 38.182,314.140 38.332,314.007 38.362 C 313.719 38.427,313.414 38.640,313.035 39.042 C 312.883 39.202,312.639 39.333,312.492 39.333 C 312.345 39.333,312.055 39.514,311.847 39.736 C 311.639 39.957,311.288 40.184,311.068 40.239 C 310.847 40.294,310.667 40.413,310.667 40.503 C 310.667 40.593,310.554 40.667,310.417 40.667 C 310.279 40.667,310.167 40.742,310.167 40.833 C 310.167 41.110,309.500 41.687,309.150 41.714 C 308.955 41.728,308.781 41.899,308.722 42.135 C 308.655 42.403,308.581 42.465,308.496 42.327 C 308.409 42.186,308.332 42.240,308.250 42.500 C 308.157 42.794,308.098 42.826,307.984 42.647 C 307.848 42.432,307.745 42.772,307.814 43.208 C 307.824 43.277,307.748 43.333,307.644 43.333 C 307.540 43.333,307.264 43.540,307.030 43.792 C 306.796 44.044,306.528 44.250,306.434 44.250 C 306.340 44.250,306.197 44.479,306.117 44.758 C 306.036 45.038,305.758 45.410,305.497 45.585 C 305.237 45.760,305.060 45.963,305.105 46.035 C 305.150 46.107,305.112 46.167,305.021 46.167 C 304.930 46.167,304.803 46.335,304.738 46.542 C 304.583 47.037,304.072 47.683,303.940 47.551 C 303.883 47.494,303.789 47.682,303.731 47.970 C 303.674 48.257,303.523 48.578,303.397 48.683 C 303.270 48.788,303.167 49.009,303.167 49.173 C 303.167 49.338,303.088 49.498,302.993 49.530 C 302.897 49.562,302.806 49.756,302.790 49.961 C 302.775 50.166,302.674 50.333,302.566 50.333 C 302.333 50.333,302.125 50.798,302.260 51.016 C 302.312 51.100,302.238 51.214,302.095 51.269 C 301.952 51.323,301.877 51.435,301.927 51.517 C 301.978 51.600,301.943 51.667,301.848 51.667 C 301.754 51.667,301.716 51.767,301.763 51.890 C 301.810 52.013,301.733 52.209,301.591 52.327 C 301.423 52.467,301.333 52.824,301.333 53.359 C 301.333 53.881,301.254 54.208,301.114 54.261 C 300.985 54.311,300.878 54.667,300.855 55.127 C 300.832 55.557,300.725 55.964,300.616 56.031 C 300.494 56.106,300.405 56.679,300.384 57.520 C 300.362 58.430,300.278 58.931,300.133 59.021 C 299.803 59.225,299.801 64.681,300.131 64.927 C 300.299 65.053,300.370 65.478,300.375 66.391 C 300.379 67.264,300.450 67.716,300.597 67.798 C 300.727 67.870,300.828 68.303,300.852 68.883 C 300.881 69.605,300.946 69.826,301.112 69.762 C 301.305 69.688,301.447 70.444,301.353 71.042 C 301.342 71.110,301.427 71.148,301.542 71.125 C 301.677 71.098,301.768 71.342,301.803 71.825 C 301.841 72.353,301.900 72.497,302.009 72.325 C 302.129 72.135,302.167 72.163,302.185 72.458 C 302.198 72.665,302.227 72.908,302.250 73.000 C 302.273 73.092,302.301 73.246,302.313 73.343 C 302.324 73.440,302.408 73.473,302.500 73.417 C 302.645 73.327,302.760 73.955,302.680 74.395 C 302.665 74.475,302.764 74.498,302.899 74.447 C 303.070 74.381,303.177 74.502,303.252 74.844 C 303.312 75.115,303.429 75.294,303.514 75.242 C 303.598 75.190,303.667 75.256,303.667 75.389 C 303.667 75.522,303.779 75.674,303.917 75.727 C 304.054 75.780,304.167 75.979,304.167 76.169 C 304.167 76.360,304.343 76.681,304.557 76.883 C 304.772 77.085,304.999 77.456,305.061 77.708 C 305.122 77.960,305.282 78.167,305.415 78.167 C 305.564 78.167,305.618 78.265,305.558 78.423 C 305.503 78.565,305.537 78.658,305.632 78.632 C 305.728 78.605,306.635 79.427,307.650 80.458 C 308.664 81.490,309.570 82.333,309.664 82.333 C 309.757 82.333,309.815 82.417,309.792 82.519 C 309.769 82.621,309.926 82.734,310.140 82.770 C 310.560 82.841,311.108 83.171,311.144 83.375 C 311.187 83.615,311.767 84.084,312.090 84.140 C 312.270 84.171,312.535 84.302,312.680 84.432 C 312.825 84.561,313.031 84.667,313.138 84.667 C 313.245 84.667,313.333 84.760,313.333 84.875 C 313.334 84.990,313.531 85.095,313.772 85.109 C 314.013 85.123,314.262 85.218,314.326 85.321 C 314.389 85.424,314.618 85.542,314.833 85.583 C 315.049 85.625,315.279 85.745,315.344 85.851 C 315.409 85.956,315.544 85.992,315.644 85.931 C 315.743 85.869,315.956 85.972,316.116 86.160 C 316.314 86.391,316.609 86.500,317.037 86.500 C 317.466 86.500,317.667 86.575,317.667 86.733 C 317.667 86.891,317.865 86.967,318.276 86.967 C 318.645 86.967,318.940 87.066,319.025 87.217 C 319.121 87.388,319.439 87.470,320.025 87.475 C 320.547 87.479,320.938 87.567,321.020 87.699 C 321.118 87.857,321.566 87.906,322.660 87.877 C 323.785 87.847,324.155 87.889,324.124 88.044 C 324.093 88.202,324.898 88.258,327.556 88.282 C 330.379 88.309,331.013 88.273,330.944 88.094 C 330.877 87.920,331.193 87.876,332.441 87.886 C 333.578 87.896,334.061 87.838,334.158 87.681 C 334.232 87.560,334.621 87.440,335.022 87.413 C 335.422 87.387,335.848 87.358,335.968 87.349 C 336.088 87.340,336.140 87.258,336.083 87.167 C 335.994 87.022,336.537 86.927,337.292 86.955 C 337.406 86.959,337.500 86.859,337.500 86.731 C 337.500 86.578,337.697 86.500,338.089 86.500 C 338.458 86.500,338.713 86.407,338.773 86.250 C 338.826 86.112,338.994 86.000,339.147 86.000 C 339.301 86.000,339.574 85.898,339.755 85.773 C 339.935 85.649,340.215 85.567,340.375 85.592 C 340.536 85.617,340.667 85.532,340.667 85.402 C 340.667 85.265,340.833 85.167,341.066 85.167 C 341.285 85.167,341.508 85.054,341.560 84.917 C 341.613 84.779,341.838 84.667,342.060 84.667 C 342.283 84.667,342.508 84.554,342.560 84.417 C 342.613 84.279,342.811 84.167,343.000 84.167 C 343.189 84.167,343.387 84.054,343.440 83.917 C 343.492 83.779,343.645 83.667,343.780 83.667 C 343.914 83.667,344.137 83.553,344.275 83.415 C 344.414 83.277,344.596 83.207,344.681 83.259 C 344.766 83.312,344.881 83.237,344.936 83.094 C 344.991 82.951,345.178 82.833,345.351 82.833 C 345.525 82.833,345.667 82.721,345.667 82.583 C 345.667 82.446,345.748 82.333,345.846 82.333 C 345.945 82.333,346.326 82.015,346.692 81.625 C 347.058 81.235,347.427 80.935,347.512 80.958 C 347.597 80.981,347.667 80.700,347.667 80.333 C 347.667 79.840,347.599 79.667,347.406 79.667 C 347.258 79.667,347.158 79.541,347.175 79.375 C 347.230 78.834,347.168 78.667,346.909 78.667 C 346.768 78.667,346.664 78.573,346.679 78.458 C 346.733 78.044,346.663 77.816,346.512 77.909 C 346.427 77.962,346.309 77.854,346.251 77.669 C 346.192 77.484,346.074 77.333,345.989 77.333 C 345.903 77.333,345.833 77.173,345.833 76.977 C 345.833 76.781,345.725 76.537,345.592 76.435 C 345.460 76.333,345.329 76.139,345.301 76.004 C 345.252 75.769,345.183 75.663,344.708 75.096 C 344.594 74.959,344.500 74.742,344.500 74.613 C 344.500 74.484,344.276 74.125,344.003 73.814 C 343.729 73.504,343.504 73.119,343.503 72.958 C 343.501 72.798,343.387 72.667,343.250 72.667 C 343.113 72.667,343.000 72.533,343.000 72.370 C 343.000 72.207,342.870 71.889,342.711 71.662 C 342.553 71.435,342.440 71.231,342.461 71.208 C 342.629 71.027,342.431 70.848,342.125 70.905 C 341.919 70.944,341.614 70.981,341.448 70.988 C 341.283 70.994,341.193 71.075,341.250 71.167 C 341.307 71.258,341.236 71.333,341.093 71.333 C 340.950 71.333,340.833 71.397,340.833 71.475 C 340.833 71.552,340.533 71.751,340.167 71.917 C 339.800 72.082,339.500 72.318,339.500 72.442 C 339.500 72.581,339.308 72.667,339.000 72.667 C 338.677 72.667,338.500 72.751,338.500 72.906 C 338.500 73.042,338.304 73.167,338.042 73.197 C 337.769 73.229,337.602 73.339,337.629 73.469 C 337.654 73.593,337.545 73.676,337.379 73.659 C 336.832 73.602,336.667 73.665,336.667 73.930 C 336.667 74.138,336.553 74.171,336.125 74.086 C 335.741 74.011,335.654 74.028,335.825 74.145 C 336.070 74.313,336.036 74.327,334.702 74.599 C 334.492 74.641,334.365 74.749,334.420 74.838 C 334.517 74.995,333.980 75.069,333.204 75.006 C 332.966 74.987,332.842 75.057,332.871 75.196 C 332.905 75.360,332.605 75.429,331.708 75.466 C 331.034 75.493,330.500 75.589,330.500 75.684 C 330.500 75.777,330.425 75.807,330.333 75.750 C 330.242 75.693,330.167 75.712,330.167 75.791 C 330.167 76.036,325.994 75.926,325.840 75.677 C 325.753 75.537,325.335 75.461,324.649 75.461 C 323.522 75.461,323.120 75.377,323.248 75.170 C 323.292 75.099,323.146 75.042,322.924 75.042 C 322.307 75.042,321.002 74.449,320.998 74.167 C 320.996 73.979,320.962 73.969,320.862 74.125 C 320.762 74.283,320.643 74.253,320.372 74.000 C 320.175 73.817,319.896 73.667,319.752 73.667 C 319.608 73.667,319.446 73.554,319.394 73.417 C 319.341 73.279,319.118 73.167,318.899 73.167 C 318.679 73.167,318.500 73.087,318.500 72.990 C 318.500 72.893,318.587 72.867,318.692 72.933 C 318.812 73.006,318.840 72.978,318.766 72.859 C 318.701 72.753,318.501 72.667,318.323 72.667 C 318.146 72.667,318.000 72.572,318.000 72.456 C 318.000 72.340,317.831 72.172,317.625 72.081 C 317.419 71.991,317.134 71.670,316.993 71.368 C 316.851 71.067,316.682 70.873,316.618 70.938 C 316.553 71.003,316.500 70.925,316.500 70.766 C 316.500 70.607,316.387 70.364,316.250 70.226 C 316.112 70.089,316.000 69.819,316.000 69.627 C 316.000 69.435,315.956 69.322,315.903 69.375 C 315.678 69.600,315.167 68.901,315.167 68.370 C 315.167 68.064,315.100 67.855,315.019 67.905 C 314.849 68.010,314.687 67.517,314.791 67.208 C 314.846 67.043,318.423 67.000,331.931 67.000 C 347.279 67.000,349.000 66.974,349.000 66.740 C 349.000 66.597,349.070 66.523,349.155 66.576 C 349.440 66.752,349.576 66.260,349.525 65.231 C 349.486 64.429,349.531 64.191,349.736 64.112 C 350.055 63.989,350.119 53.977,349.801 54.046 C 349.605 54.088,349.531 53.765,349.478 52.635 C 349.457 52.187,349.365 51.867,349.262 51.885 C 349.164 51.902,349.103 51.820,349.127 51.702 C 349.151 51.583,349.099 51.351,349.010 51.185 C 348.903 50.986,348.909 50.825,349.026 50.708 C 349.150 50.583,349.103 50.478,348.866 50.351 C 348.629 50.224,348.558 50.065,348.625 49.809 C 348.686 49.573,348.656 49.487,348.538 49.560 C 348.306 49.703,348.175 49.488,348.129 48.890 C 348.109 48.630,347.962 48.274,347.802 48.100 C 347.642 47.925,347.546 47.728,347.587 47.660 C 347.629 47.593,347.552 47.446,347.417 47.333 C 347.281 47.221,347.209 47.066,347.257 46.989 C 347.304 46.913,347.188 46.768,347.000 46.667 C 346.812 46.566,346.696 46.421,346.743 46.344 C 346.791 46.267,346.718 46.112,346.581 45.998 C 346.445 45.885,346.333 45.689,346.333 45.563 C 346.333 45.437,346.221 45.333,346.083 45.333 C 345.942 45.333,345.833 45.184,345.833 44.990 C 345.833 44.801,345.767 44.688,345.686 44.738 C 345.549 44.823,345.274 44.244,345.315 43.958 C 345.325 43.890,345.256 43.833,345.161 43.833 C 344.945 43.833,344.000 42.879,344.000 42.661 C 344.000 42.572,343.925 42.500,343.833 42.500 C 343.657 42.500,343.000 41.900,343.000 41.739 C 343.000 41.591,341.980 40.763,341.629 40.626 C 341.455 40.558,341.359 40.427,341.416 40.335 C 341.473 40.242,341.365 40.167,341.177 40.167 C 340.983 40.167,340.833 40.058,340.833 39.917 C 340.833 39.778,340.685 39.667,340.500 39.667 C 340.317 39.667,340.167 39.592,340.167 39.500 C 340.167 39.408,340.062 39.333,339.934 39.333 C 339.807 39.333,339.659 39.221,339.606 39.083 C 339.554 38.946,339.358 38.833,339.172 38.833 C 338.971 38.833,338.833 38.724,338.833 38.564 C 338.833 38.379,338.732 38.321,338.509 38.379 C 338.317 38.429,338.070 38.336,337.900 38.149 C 337.743 37.975,337.477 37.833,337.308 37.833 C 337.131 37.833,336.994 37.709,336.987 37.542 C 336.979 37.378,336.938 37.339,336.892 37.452 C 336.812 37.648,336.242 37.451,336.000 37.144 C 335.954 37.086,335.579 36.996,335.167 36.945 C 334.754 36.893,334.393 36.846,334.365 36.842 C 334.337 36.837,334.348 36.777,334.391 36.708 C 334.433 36.640,334.119 36.562,333.692 36.535 C 333.257 36.509,332.835 36.381,332.732 36.244 C 332.602 36.073,332.216 36.000,331.440 36.000 C 330.644 36.000,330.345 35.942,330.375 35.792 C 330.442 35.455,322.901 35.418,322.772 35.754 M42.560 36.751 C 42.522 36.849,42.326 36.942,42.123 36.957 C 41.921 36.973,41.729 37.064,41.697 37.159 C 41.665 37.255,41.422 37.333,41.158 37.333 C 40.799 37.333,40.701 37.397,40.773 37.583 C 40.827 37.723,40.778 37.833,40.662 37.833 C 40.408 37.833,39.665 38.610,39.795 38.740 C 39.847 38.791,39.764 38.833,39.611 38.833 C 39.458 38.833,39.352 38.927,39.375 39.042 C 39.398 39.156,39.285 39.240,39.125 39.227 C 38.891 39.208,38.833 39.340,38.831 39.894 C 38.829 40.400,38.785 40.517,38.667 40.333 C 38.470 40.029,38.462 40.095,38.417 42.389 C 38.394 43.575,38.447 44.089,38.609 44.252 C 38.732 44.375,38.833 44.596,38.833 44.743 C 38.833 44.890,38.946 45.054,39.083 45.106 C 39.221 45.159,39.333 45.344,39.333 45.518 C 39.333 45.846,39.990 46.614,40.208 46.542 C 40.277 46.519,40.333 46.603,40.333 46.730 C 40.333 46.987,40.703 47.340,41.033 47.399 C 41.530 47.487,42.000 47.699,42.000 47.836 C 42.000 48.077,45.965 47.997,46.059 47.754 C 46.102 47.640,46.353 47.504,46.616 47.452 C 46.878 47.399,47.301 47.164,47.555 46.928 C 47.809 46.693,48.114 46.500,48.232 46.500 C 48.350 46.500,48.590 46.201,48.765 45.835 C 48.940 45.470,49.134 45.170,49.195 45.169 C 49.310 45.167,49.587 44.179,49.534 43.964 C 49.517 43.899,49.604 43.884,49.726 43.931 C 49.902 43.998,49.947 43.669,49.943 42.341 C 49.939 41.073,49.884 40.667,49.719 40.667 C 49.586 40.667,49.500 40.466,49.500 40.157 C 49.500 39.876,49.432 39.689,49.349 39.740 C 49.266 39.792,49.239 39.665,49.290 39.459 C 49.341 39.252,49.328 39.133,49.261 39.194 C 49.122 39.321,48.500 38.753,48.500 38.500 C 48.500 38.408,48.387 38.333,48.250 38.333 C 48.112 38.333,48.000 38.258,48.000 38.167 C 48.000 37.877,47.347 37.333,47.000 37.333 C 46.817 37.333,46.667 37.258,46.667 37.167 C 46.667 37.075,46.413 37.000,46.104 37.000 C 45.794 37.000,45.444 36.883,45.325 36.740 C 45.071 36.434,42.678 36.444,42.560 36.751 M181.212 36.746 C 180.871 37.133,180.907 69.142,181.248 69.272 C 181.439 69.346,181.500 69.647,181.500 70.518 C 181.500 71.150,181.568 71.667,181.651 71.667 C 181.734 71.667,181.854 72.042,181.917 72.500 C 181.980 72.958,182.092 73.333,182.167 73.333 C 182.241 73.333,182.354 73.708,182.417 74.167 C 182.480 74.625,182.599 74.958,182.682 74.907 C 182.765 74.856,182.842 74.912,182.853 75.032 C 182.863 75.152,182.882 75.362,182.894 75.500 C 182.907 75.637,183.010 75.731,183.125 75.708 C 183.260 75.681,183.333 75.872,183.333 76.250 C 183.333 76.628,183.407 76.819,183.542 76.792 C 183.659 76.768,183.773 76.951,183.803 77.208 C 183.832 77.460,183.925 77.667,184.011 77.667 C 184.302 77.667,184.750 78.248,184.750 78.625 C 184.750 78.831,184.812 78.981,184.889 78.958 C 184.965 78.935,185.131 79.104,185.258 79.333 C 185.384 79.563,185.491 79.694,185.494 79.625 C 185.505 79.396,186.147 80.143,186.199 80.445 C 186.267 80.839,186.687 81.333,186.954 81.333 C 187.071 81.333,187.148 81.390,187.125 81.458 C 187.102 81.527,187.133 81.609,187.194 81.641 C 187.680 81.893,188.612 82.932,188.446 83.037 C 188.338 83.105,188.325 83.168,188.417 83.177 C 188.961 83.227,189.263 83.345,189.429 83.571 C 189.532 83.713,189.665 83.779,189.725 83.720 C 189.784 83.660,189.833 83.688,189.833 83.782 C 189.833 83.987,191.613 85.167,191.923 85.167 C 192.044 85.167,192.290 85.354,192.470 85.583 C 192.697 85.872,192.961 86.000,193.328 86.000 C 193.619 86.000,193.970 86.112,194.107 86.250 C 194.245 86.388,194.502 86.500,194.679 86.500 C 194.855 86.500,195.000 86.612,195.000 86.750 C 195.000 86.931,195.185 87.000,195.667 87.000 C 196.089 87.000,196.333 87.076,196.333 87.209 C 196.333 87.345,196.661 87.434,197.288 87.467 C 197.813 87.494,198.356 87.614,198.496 87.733 C 198.663 87.875,199.130 87.933,199.861 87.902 C 200.718 87.865,200.994 87.911,201.067 88.100 C 201.145 88.305,201.671 88.342,204.249 88.326 C 206.079 88.314,207.298 88.244,207.242 88.153 C 207.140 87.989,207.380 87.955,208.860 87.921 C 209.379 87.908,209.924 87.799,210.071 87.677 C 210.218 87.555,210.712 87.456,211.169 87.456 C 211.761 87.456,212.000 87.390,212.000 87.228 C 212.000 87.034,212.673 86.896,213.208 86.980 C 213.277 86.991,213.333 86.887,213.333 86.750 C 213.333 86.583,213.500 86.500,213.833 86.500 C 214.189 86.500,214.333 86.420,214.333 86.222 C 214.333 86.069,214.376 85.988,214.429 86.040 C 214.482 86.093,214.744 86.073,215.013 85.996 C 215.355 85.898,215.501 85.915,215.503 86.053 C 215.504 86.161,215.662 86.006,215.853 85.708 C 216.086 85.344,216.330 85.167,216.600 85.167 C 216.820 85.167,217.000 85.093,217.000 85.003 C 217.000 84.914,217.291 84.692,217.646 84.510 C 218.001 84.329,218.338 84.060,218.395 83.913 C 218.451 83.766,218.559 83.683,218.634 83.730 C 218.709 83.776,218.952 83.593,219.175 83.324 C 219.397 83.054,219.674 82.833,219.790 82.833 C 219.905 82.833,220.000 82.754,220.000 82.657 C 220.000 82.560,220.075 82.527,220.167 82.583 C 220.258 82.640,220.333 82.586,220.333 82.464 C 220.333 82.341,220.652 82.027,221.042 81.766 C 221.431 81.505,221.600 81.338,221.417 81.396 C 221.125 81.488,221.133 81.459,221.477 81.167 C 221.693 80.983,221.979 80.833,222.112 80.833 C 222.244 80.833,222.307 80.758,222.250 80.667 C 222.099 80.422,222.707 79.480,222.955 79.575 C 223.071 79.620,223.167 79.546,223.167 79.411 C 223.167 79.277,223.284 79.167,223.427 79.167 C 223.575 79.167,223.675 79.041,223.658 78.875 C 223.596 78.267,223.675 78.000,223.917 78.000 C 224.054 78.000,224.148 77.906,224.125 77.792 C 224.102 77.677,224.183 77.604,224.304 77.629 C 224.425 77.654,224.477 77.598,224.419 77.504 C 224.361 77.410,224.391 77.333,224.485 77.333 C 224.579 77.333,224.616 77.227,224.566 77.098 C 224.513 76.960,224.594 76.839,224.761 76.806 C 224.936 76.772,225.067 76.563,225.098 76.265 C 225.126 75.998,225.238 75.726,225.346 75.659 C 225.454 75.592,225.497 75.463,225.440 75.372 C 225.384 75.280,225.487 75.016,225.669 74.785 C 225.851 74.553,226.000 74.179,226.000 73.952 C 226.000 73.726,226.097 73.460,226.215 73.362 C 226.334 73.264,226.450 72.899,226.473 72.552 C 226.497 72.205,226.620 71.863,226.748 71.791 C 226.917 71.696,226.959 71.417,226.904 70.747 C 226.844 70.018,226.878 69.833,227.075 69.833 C 227.449 69.833,227.466 37.109,227.092 36.735 C 226.879 36.522,225.871 36.494,219.964 36.535 L 213.083 36.583 213.046 52.333 C 213.013 66.098,212.977 68.105,212.758 68.264 C 212.620 68.365,212.540 68.609,212.579 68.810 C 212.679 69.330,212.155 70.676,211.662 71.165 C 211.234 71.590,211.167 71.703,211.167 72.000 C 211.167 72.092,211.054 72.167,210.917 72.167 C 210.779 72.167,210.685 72.252,210.708 72.356 C 210.731 72.460,210.438 72.703,210.057 72.897 C 209.676 73.091,209.327 73.380,209.281 73.540 C 209.192 73.853,208.401 74.228,208.153 74.075 C 208.069 74.023,208.000 74.097,208.000 74.240 C 208.000 74.413,207.833 74.507,207.500 74.521 C 206.722 74.553,206.663 74.570,206.525 74.792 C 206.329 75.111,202.156 75.106,201.923 74.787 C 201.828 74.657,201.616 74.571,201.452 74.595 C 201.288 74.619,200.996 74.477,200.802 74.278 C 200.609 74.079,200.514 74.029,200.591 74.167 C 200.711 74.382,200.691 74.385,200.451 74.190 C 200.297 74.065,200.065 74.003,199.937 74.053 C 199.808 74.102,199.532 73.962,199.325 73.741 C 199.117 73.520,198.799 73.292,198.618 73.235 C 198.357 73.152,198.336 73.100,198.520 72.984 C 198.691 72.876,198.654 72.838,198.375 72.836 C 197.977 72.833,197.267 72.243,197.401 72.026 C 197.444 71.955,197.297 71.760,197.073 71.592 C 196.850 71.424,196.667 71.191,196.667 71.074 C 196.667 70.957,196.587 70.835,196.490 70.802 C 196.393 70.770,196.295 70.503,196.272 70.210 C 196.250 69.916,196.168 69.618,196.089 69.546 C 196.011 69.475,196.007 69.529,196.081 69.667 C 196.191 69.871,196.174 69.878,195.989 69.706 C 195.854 69.580,195.773 69.191,195.788 68.734 C 195.807 68.134,195.762 67.992,195.573 68.064 C 195.382 68.138,195.333 67.963,195.332 67.203 C 195.331 66.679,195.331 59.659,195.333 51.603 C 195.336 40.931,195.286 36.893,195.148 36.728 C 194.865 36.386,181.512 36.404,181.212 36.746 M77.191 45.887 C 77.025 46.087,76.952 63.205,76.999 90.785 L 77.000 91.153 82.208 91.118 L 87.417 91.083 87.459 68.601 C 87.488 52.984,87.447 46.054,87.325 45.907 C 87.054 45.580,77.462 45.561,77.191 45.887 M328.667 47.728 C 328.667 47.874,328.863 47.959,329.208 47.962 C 330.217 47.972,330.333 48.000,330.333 48.228 C 330.333 48.360,330.492 48.448,330.707 48.437 C 330.937 48.424,331.083 48.513,331.084 48.667 C 331.086 48.832,331.241 48.911,331.543 48.899 C 331.835 48.887,332.000 48.966,332.000 49.117 C 332.000 49.247,332.075 49.307,332.167 49.250 C 332.258 49.193,332.333 49.226,332.333 49.323 C 332.333 49.421,332.432 49.500,332.553 49.500 C 332.834 49.500,333.930 50.481,333.875 50.682 C 333.852 50.765,333.946 50.833,334.083 50.833 C 334.224 50.833,334.333 50.982,334.333 51.172 C 334.333 51.358,334.450 51.555,334.593 51.610 C 334.736 51.665,334.814 51.809,334.768 51.930 C 334.714 52.070,334.772 52.116,334.925 52.057 C 335.160 51.967,335.197 52.051,335.233 52.750 C 335.242 52.933,335.344 53.065,335.458 53.042 C 335.590 53.015,335.674 53.214,335.688 53.583 C 335.699 53.904,335.727 54.242,335.750 54.333 C 335.773 54.425,335.802 54.631,335.815 54.792 C 335.835 55.042,335.861 55.048,336.000 54.833 C 336.116 54.654,336.162 54.831,336.164 55.456 L 336.167 56.329 325.429 56.373 L 314.691 56.417 314.704 55.958 C 314.712 55.705,314.819 55.415,314.942 55.312 C 315.066 55.210,315.167 54.985,315.167 54.813 C 315.167 54.641,315.279 54.500,315.417 54.500 C 315.584 54.500,315.667 54.332,315.667 53.990 C 315.667 53.710,315.736 53.523,315.820 53.575 C 315.904 53.627,316.022 53.444,316.083 53.168 C 316.145 52.886,316.301 52.667,316.440 52.667 C 316.575 52.667,316.643 52.597,316.591 52.513 C 316.539 52.428,316.722 52.111,316.998 51.809 C 317.274 51.506,317.500 51.163,317.500 51.046 C 317.500 50.929,317.612 50.833,317.750 50.833 C 317.887 50.833,318.000 50.746,318.000 50.640 C 318.000 50.316,319.035 49.500,319.447 49.500 C 319.716 49.500,319.833 49.404,319.833 49.181 C 319.833 48.919,319.924 48.877,320.343 48.943 C 320.765 49.009,320.844 48.971,320.802 48.724 C 320.764 48.505,320.858 48.423,321.153 48.420 C 321.374 48.418,321.587 48.323,321.625 48.208 C 321.663 48.094,321.894 47.998,322.139 47.995 C 322.383 47.992,322.729 47.879,322.907 47.745 C 323.366 47.398,328.667 47.383,328.667 47.728 M266.789 48.218 C 266.767 48.327,266.900 48.424,267.083 48.434 C 267.267 48.443,267.623 48.462,267.875 48.475 C 268.171 48.491,268.333 48.593,268.333 48.763 C 268.333 48.954,268.480 49.017,268.875 48.996 C 269.701 48.951,269.837 48.982,269.792 49.208 C 269.769 49.323,269.844 49.398,269.958 49.375 C 270.073 49.352,270.167 49.402,270.167 49.487 C 270.167 49.571,270.397 49.691,270.678 49.752 C 270.959 49.814,271.229 49.970,271.279 50.098 C 271.328 50.226,271.448 50.282,271.546 50.222 C 271.655 50.154,271.685 50.213,271.622 50.376 C 271.518 50.647,271.908 50.910,272.173 50.746 C 272.252 50.697,272.401 50.816,272.505 51.010 C 272.609 51.203,272.731 51.324,272.777 51.278 C 272.865 51.191,273.500 51.763,273.500 51.929 C 273.500 51.981,273.609 52.133,273.743 52.267 C 273.877 52.400,273.947 52.610,273.900 52.733 C 273.850 52.864,273.960 52.994,274.168 53.049 C 274.362 53.099,274.507 53.240,274.491 53.362 C 274.432 53.795,274.502 54.018,274.667 53.917 C 274.758 53.860,274.833 53.921,274.833 54.053 C 274.833 54.185,274.946 54.386,275.083 54.500 C 275.221 54.614,275.333 54.944,275.333 55.233 C 275.333 55.523,275.434 55.907,275.556 56.088 C 275.685 56.278,275.784 56.903,275.792 57.565 C 275.799 58.196,275.875 58.759,275.960 58.815 C 276.154 58.942,276.237 61.253,276.057 61.540 C 275.867 61.844,275.826 62.125,275.800 63.295 C 275.785 63.935,275.690 64.411,275.555 64.524 C 275.433 64.625,275.333 64.969,275.333 65.288 C 275.333 65.736,275.276 65.847,275.083 65.773 C 274.886 65.697,274.833 65.821,274.833 66.356 C 274.833 66.882,274.739 67.109,274.417 67.363 C 274.177 67.552,274.000 67.862,274.000 68.095 C 274.000 68.344,273.904 68.500,273.750 68.500 C 273.612 68.500,273.500 68.617,273.500 68.760 C 273.500 68.903,273.425 68.973,273.333 68.917 C 273.242 68.860,273.157 68.893,273.146 68.990 C 273.134 69.087,273.116 69.242,273.104 69.333 C 273.093 69.425,273.008 69.505,272.917 69.512 C 272.825 69.518,272.689 69.632,272.615 69.765 C 272.540 69.898,272.409 69.963,272.323 69.910 C 272.237 69.857,272.095 69.999,272.009 70.226 C 271.923 70.453,271.698 70.687,271.510 70.747 C 271.321 70.807,271.167 70.963,271.167 71.095 C 271.167 71.226,271.022 71.333,270.845 71.333 C 270.668 71.333,270.425 71.429,270.304 71.545 C 270.182 71.661,269.921 71.747,269.723 71.735 C 269.490 71.721,269.391 71.790,269.445 71.930 C 269.499 72.072,269.323 72.185,268.931 72.258 C 268.602 72.320,268.333 72.437,268.333 72.519 C 268.333 72.600,268.079 72.667,267.768 72.667 C 267.419 72.667,267.166 72.762,267.106 72.917 C 267.026 73.127,266.502 73.167,263.821 73.167 C 261.054 73.167,260.644 73.134,260.727 72.917 C 260.802 72.721,260.682 72.667,260.175 72.667 C 259.819 72.667,259.501 72.588,259.469 72.491 C 259.437 72.394,259.299 72.296,259.164 72.272 C 258.632 72.180,258.167 71.970,258.167 71.822 C 258.167 71.737,258.110 71.682,258.042 71.701 C 257.973 71.720,257.682 71.610,257.396 71.458 C 257.110 71.305,256.829 71.227,256.771 71.284 C 256.714 71.342,256.667 71.264,256.667 71.111 C 256.667 70.958,256.570 70.833,256.453 70.833 C 256.335 70.833,255.990 70.533,255.687 70.167 C 255.384 69.800,255.067 69.542,254.984 69.593 C 254.901 69.644,254.833 69.577,254.833 69.444 C 254.833 69.311,254.721 69.159,254.583 69.106 C 254.446 69.054,254.333 68.904,254.333 68.775 C 254.333 68.645,254.183 68.500,253.999 68.452 C 253.776 68.393,253.699 68.276,253.767 68.099 C 253.823 67.953,253.798 67.833,253.711 67.833 C 253.624 67.833,253.466 67.642,253.359 67.407 C 253.253 67.173,253.092 67.027,253.002 67.082 C 252.904 67.143,252.862 66.979,252.897 66.675 C 252.938 66.327,252.884 66.167,252.728 66.167 C 252.603 66.167,252.500 66.017,252.500 65.833 C 252.500 65.340,252.472 65.266,252.216 65.079 C 252.061 64.966,251.981 64.564,251.978 63.875 C 251.975 63.179,251.910 62.854,251.778 62.879 C 251.451 62.942,251.421 58.086,251.746 57.623 C 251.885 57.423,252.000 56.936,252.000 56.541 C 252.000 56.056,252.081 55.792,252.250 55.727 C 252.387 55.674,252.500 55.447,252.500 55.222 C 252.500 54.955,252.567 54.855,252.693 54.933 C 252.825 55.015,252.856 54.939,252.792 54.693 C 252.740 54.495,252.766 54.333,252.849 54.333 C 252.932 54.333,252.984 54.277,252.965 54.208 C 252.867 53.864,254.257 52.000,254.611 52.000 C 254.733 52.000,254.833 51.854,254.833 51.676 C 254.833 51.311,255.422 50.833,255.870 50.833 C 256.033 50.833,256.167 50.721,256.167 50.583 C 256.167 50.446,256.279 50.333,256.417 50.333 C 256.554 50.333,256.667 50.221,256.667 50.083 C 256.667 49.946,256.807 49.833,256.980 49.833 C 257.152 49.833,257.388 49.718,257.505 49.578 C 257.621 49.437,257.799 49.350,257.900 49.384 C 258.001 49.418,258.165 49.335,258.266 49.199 C 258.366 49.063,258.652 48.940,258.901 48.927 C 259.150 48.914,259.407 48.817,259.472 48.712 C 259.537 48.607,259.792 48.495,260.038 48.462 C 260.285 48.429,260.540 48.349,260.603 48.286 C 260.667 48.222,260.820 48.253,260.943 48.355 C 261.156 48.532,261.217 48.483,261.125 48.208 C 261.057 48.006,262.435 47.913,264.705 47.968 C 266.238 48.004,266.816 48.074,266.789 48.218 M60.207 75.118 L 60.250 91.083 65.542 91.119 L 70.833 91.154 70.833 75.177 L 70.833 59.200 65.499 59.176 L 60.165 59.152 60.207 75.118 M44.083 72.833 C 44.027 72.925,44.041 73.005,44.115 73.011 C 44.189 73.016,44.080 73.089,43.872 73.173 L 43.494 73.325 43.503 82.027 C 43.509 88.039,43.568 90.797,43.693 90.948 C 43.883 91.178,53.331 91.285,53.907 91.064 C 54.148 90.972,54.173 90.062,54.162 81.814 L 54.151 72.667 49.169 72.667 C 46.027 72.667,44.148 72.728,44.083 72.833 M122.956 94.623 C 122.763 94.991,122.824 97.392,123.029 97.522 C 123.151 97.599,124.133 97.663,125.212 97.664 L 127.175 97.667 127.162 102.943 C 127.152 107.109,127.195 108.248,127.366 108.357 C 127.536 108.465,127.529 108.496,127.333 108.500 C 127.111 108.505,127.111 108.524,127.333 108.673 C 127.717 108.930,130.364 108.821,130.261 108.553 C 130.216 108.435,130.326 108.260,130.506 108.163 C 130.820 107.995,130.833 107.785,130.833 102.827 L 130.833 97.667 132.923 97.667 L 135.013 97.667 134.965 96.125 L 134.917 94.583 128.969 94.540 C 125.699 94.516,122.992 94.553,122.956 94.623 M142.200 94.700 C 142.051 94.849,142.000 96.597,142.000 101.539 L 142.000 108.177 142.375 108.328 C 142.581 108.411,142.652 108.484,142.532 108.489 C 142.412 108.495,142.357 108.571,142.411 108.657 C 142.492 108.789,144.492 108.775,145.333 108.637 C 145.544 108.602,145.574 108.250,145.525 106.381 L 145.467 104.167 146.305 104.167 C 147.166 104.167,147.667 104.450,147.667 104.938 C 147.667 105.075,147.742 105.140,147.833 105.083 C 147.925 105.027,148.000 105.097,148.000 105.240 C 148.000 105.383,148.112 105.500,148.250 105.500 C 148.387 105.500,148.502 105.631,148.506 105.792 C 148.512 106.115,149.051 106.833,149.287 106.833 C 149.450 106.833,149.943 107.981,149.875 108.200 C 149.852 108.273,149.977 108.333,150.153 108.333 C 150.328 108.333,150.503 108.427,150.542 108.542 C 150.589 108.685,151.136 108.768,152.283 108.807 L 153.955 108.863 153.955 108.182 C 153.955 107.807,153.881 107.500,153.790 107.500 C 153.700 107.500,153.721 107.386,153.836 107.246 C 154.013 107.034,154.002 107.010,153.775 107.097 C 153.598 107.165,153.463 107.093,153.388 106.892 C 153.325 106.722,153.131 106.457,152.957 106.302 C 152.783 106.148,152.625 105.915,152.605 105.784 C 152.586 105.654,152.442 105.418,152.284 105.260 C 152.126 105.102,152.041 104.902,152.094 104.816 C 152.148 104.729,152.125 104.679,152.045 104.704 C 151.845 104.767,150.985 103.825,151.089 103.657 C 151.135 103.583,151.099 103.478,151.009 103.422 C 150.738 103.255,151.164 102.510,151.465 102.625 C 151.634 102.690,151.680 102.656,151.600 102.527 C 151.526 102.407,151.629 102.270,151.864 102.176 C 152.076 102.091,152.159 102.016,152.047 102.011 C 151.915 102.004,151.970 101.787,152.208 101.385 C 152.589 100.739,152.804 97.167,152.461 97.167 C 152.380 97.167,152.355 97.100,152.406 97.017 C 152.457 96.935,152.381 96.823,152.238 96.769 C 152.096 96.714,152.020 96.602,152.071 96.520 C 152.122 96.438,152.006 96.330,151.815 96.280 C 151.593 96.222,151.512 96.115,151.592 95.985 C 151.675 95.851,151.649 95.825,151.515 95.908 C 151.385 95.988,151.278 95.907,151.220 95.685 C 151.170 95.494,151.068 95.374,150.994 95.420 C 150.921 95.466,150.747 95.390,150.609 95.252 C 150.470 95.113,150.135 95.000,149.863 95.000 C 149.578 95.000,149.328 94.894,149.273 94.750 C 149.147 94.420,142.527 94.373,142.200 94.700 M161.711 94.610 C 161.551 94.674,161.506 96.283,161.509 101.685 C 161.513 106.093,161.573 108.641,161.674 108.579 C 161.762 108.525,161.833 108.560,161.833 108.657 C 161.833 108.777,163.256 108.833,166.263 108.833 L 170.692 108.833 171.188 108.338 C 171.727 107.799,171.882 105.690,171.375 105.792 C 171.187 105.829,171.094 105.626,171.147 105.292 C 171.158 105.223,171.110 105.176,171.042 105.186 C 170.973 105.197,169.623 105.197,168.042 105.186 L 165.167 105.167 165.167 103.907 L 165.167 102.647 167.167 102.699 C 168.267 102.727,169.167 102.685,169.167 102.605 C 169.167 102.525,169.272 102.547,169.402 102.654 C 169.563 102.788,169.671 102.794,169.745 102.675 C 169.804 102.579,169.764 102.500,169.656 102.500 C 169.518 102.500,169.511 102.437,169.630 102.292 C 169.725 102.177,169.782 101.558,169.757 100.917 C 169.703 99.489,169.713 99.535,169.458 99.545 C 169.344 99.549,168.331 99.541,167.208 99.526 L 165.167 99.500 165.167 98.583 L 165.167 97.667 167.980 97.667 C 170.205 97.667,170.833 97.617,170.989 97.430 C 171.236 97.133,171.190 94.798,170.934 94.628 C 170.731 94.493,162.041 94.476,161.711 94.610 M179.375 94.610 C 178.973 94.773,179.084 108.176,179.488 108.282 C 179.668 108.329,179.773 108.463,179.726 108.585 C 179.661 108.756,179.971 108.804,181.142 108.804 C 182.963 108.804,182.802 109.162,182.826 105.078 C 182.837 103.265,182.888 101.713,182.940 101.630 C 183.058 101.438,183.626 101.943,183.757 102.355 C 183.811 102.527,183.944 102.667,184.053 102.667 C 184.161 102.667,184.400 102.892,184.583 103.167 C 184.767 103.441,185.008 103.666,185.120 103.666 C 185.241 103.666,185.280 103.779,185.216 103.946 C 185.135 104.157,185.176 104.199,185.388 104.117 C 185.541 104.059,185.667 104.080,185.667 104.164 C 185.667 104.249,185.873 104.525,186.125 104.778 C 186.377 105.031,186.565 105.296,186.542 105.369 C 186.519 105.441,186.650 105.500,186.833 105.500 C 187.019 105.500,187.167 105.611,187.167 105.750 C 187.167 105.888,187.242 106.000,187.333 106.000 C 187.425 106.000,187.500 106.110,187.500 106.245 C 187.500 106.394,187.598 106.452,187.750 106.394 C 187.897 106.337,188.000 106.391,188.000 106.526 C 188.000 106.772,188.674 107.561,189.077 107.786 C 189.213 107.862,189.349 108.090,189.380 108.291 C 189.442 108.698,189.667 109.006,189.667 108.685 C 189.667 108.572,189.732 108.521,189.812 108.570 C 189.892 108.620,190.288 108.688,190.693 108.721 C 191.622 108.799,191.541 109.490,191.564 101.333 L 191.583 94.583 189.792 94.549 L 188.000 94.515 187.995 98.216 C 187.991 100.839,187.940 101.831,187.818 101.621 C 187.724 101.459,187.564 101.377,187.464 101.439 C 187.354 101.507,187.329 101.474,187.401 101.358 C 187.468 101.250,187.406 101.120,187.261 101.064 C 187.117 101.009,187.000 100.869,187.000 100.752 C 187.000 100.635,186.842 100.498,186.650 100.447 C 186.424 100.388,186.345 100.282,186.427 100.150 C 186.516 100.006,186.471 99.976,186.277 100.050 C 186.080 100.126,186.000 100.067,186.000 99.846 C 186.000 99.675,185.883 99.491,185.739 99.436 C 185.596 99.381,185.526 99.259,185.584 99.166 C 185.641 99.073,185.459 98.866,185.179 98.707 C 184.898 98.547,184.668 98.318,184.668 98.198 C 184.667 98.079,184.605 98.018,184.530 98.065 C 184.374 98.161,183.816 97.572,183.943 97.446 C 183.988 97.401,183.870 97.314,183.680 97.254 C 183.490 97.194,183.288 96.962,183.232 96.739 C 183.176 96.516,183.026 96.333,182.899 96.333 C 182.771 96.333,182.685 96.243,182.708 96.133 C 182.731 96.022,182.675 95.927,182.583 95.921 C 182.293 95.903,181.679 95.281,181.784 95.111 C 181.840 95.022,181.802 95.000,181.701 95.062 C 181.600 95.125,181.435 95.024,181.336 94.838 C 181.159 94.507,179.973 94.369,179.375 94.610 M200.113 94.609 C 199.978 94.744,199.966 107.918,200.101 108.432 C 200.181 108.739,200.359 108.765,202.752 108.811 C 205.309 108.861,206.090 108.781,205.909 108.488 C 205.821 108.345,207.077 108.238,207.958 108.314 C 208.199 108.334,208.333 108.254,208.333 108.090 C 208.333 107.944,208.478 107.833,208.667 107.833 C 208.850 107.833,209.300 107.533,209.667 107.167 C 210.033 106.800,210.408 106.500,210.500 106.500 C 210.592 106.500,210.667 106.388,210.667 106.250 C 210.667 106.112,210.779 106.000,210.917 106.000 C 211.054 106.000,211.167 105.888,211.167 105.750 C 211.167 105.612,211.279 105.500,211.417 105.500 C 211.556 105.500,211.667 105.352,211.667 105.167 C 211.667 104.983,211.723 104.833,211.792 104.833 C 211.860 104.833,211.934 104.589,211.955 104.292 C 211.976 103.994,212.094 103.675,212.217 103.584 C 212.570 103.320,212.609 99.966,212.262 99.620 C 212.118 99.475,212.000 99.157,212.000 98.913 C 212.000 98.669,211.851 98.280,211.669 98.048 C 211.487 97.817,211.386 97.543,211.446 97.439 C 211.505 97.335,211.494 97.304,211.421 97.369 C 211.272 97.504,210.557 96.669,210.630 96.446 C 210.656 96.367,210.586 96.333,210.474 96.370 C 210.362 96.407,210.135 96.302,209.969 96.135 C 209.803 95.969,209.550 95.833,209.407 95.833 C 209.264 95.833,209.193 95.758,209.250 95.667 C 209.307 95.575,209.234 95.500,209.088 95.500 C 208.942 95.500,208.780 95.388,208.727 95.250 C 208.660 95.076,208.389 95.000,207.836 95.000 C 207.352 95.000,206.964 94.907,206.844 94.763 C 206.631 94.507,200.359 94.363,200.113 94.609 M222.577 94.677 C 222.517 94.774,222.306 94.927,222.109 95.017 C 221.337 95.369,220.919 95.662,221.167 95.677 C 221.304 95.686,221.210 95.768,220.958 95.860 C 220.552 96.009,220.500 96.112,220.500 96.774 C 220.500 97.229,220.435 97.479,220.333 97.417 C 220.141 97.298,220.139 97.303,220.073 98.447 C 220.039 99.044,220.097 99.373,220.262 99.510 C 220.393 99.618,220.500 99.807,220.500 99.929 C 220.500 100.303,220.873 100.995,221.025 100.901 C 221.103 100.853,221.237 100.996,221.321 101.219 C 221.408 101.446,221.665 101.672,221.905 101.732 C 222.140 101.791,222.333 101.951,222.333 102.087 C 222.333 102.250,222.503 102.333,222.833 102.333 C 223.108 102.333,223.333 102.402,223.333 102.487 C 223.333 102.571,223.558 102.690,223.833 102.750 C 224.108 102.810,224.333 102.956,224.333 103.073 C 224.333 103.211,224.481 103.259,224.750 103.207 C 224.980 103.163,225.167 103.206,225.167 103.303 C 225.167 103.399,225.324 103.527,225.516 103.589 C 226.036 103.754,226.500 104.283,226.497 104.708 C 226.495 105.012,226.464 105.035,226.333 104.833 C 226.205 104.635,226.171 104.631,226.169 104.814 C 226.161 105.540,224.374 106.007,224.020 105.375 C 223.930 105.215,223.814 105.102,223.762 105.125 C 223.484 105.247,223.167 105.136,223.167 104.917 C 223.167 104.779,223.110 104.685,223.042 104.708 C 222.973 104.731,222.903 104.685,222.887 104.605 C 222.779 104.082,221.000 103.619,221.000 104.114 C 221.000 104.231,220.890 104.281,220.750 104.227 C 220.592 104.166,220.500 104.229,220.500 104.399 C 220.500 104.546,220.425 104.667,220.333 104.667 C 220.029 104.667,219.525 105.303,219.583 105.612 C 219.615 105.780,219.647 106.048,219.654 106.208 C 219.661 106.369,219.760 106.481,219.875 106.458 C 219.990 106.435,220.065 106.510,220.042 106.625 C 220.019 106.740,220.150 106.833,220.333 106.833 C 220.517 106.833,220.651 106.890,220.631 106.958 C 220.550 107.246,221.107 107.833,221.462 107.833 C 221.672 107.833,221.887 107.947,221.941 108.086 C 221.994 108.225,222.123 108.329,222.227 108.317 C 222.672 108.263,223.013 108.344,222.927 108.483 C 222.772 108.734,223.173 108.783,225.236 108.766 C 226.665 108.755,227.242 108.692,227.292 108.542 C 227.330 108.427,227.467 108.333,227.597 108.333 C 227.727 108.333,227.833 108.249,227.833 108.146 C 227.833 108.017,227.911 108.023,228.083 108.167 C 228.288 108.337,228.333 108.325,228.333 108.104 C 228.333 107.955,228.454 107.833,228.601 107.833 C 228.771 107.833,228.834 107.742,228.773 107.583 C 228.715 107.431,228.773 107.333,228.922 107.333 C 229.057 107.333,229.167 107.225,229.167 107.093 C 229.167 106.961,229.253 106.799,229.359 106.734 C 229.486 106.655,229.506 106.689,229.417 106.833 C 229.327 106.978,229.347 107.011,229.474 106.933 C 229.580 106.867,229.667 106.526,229.667 106.175 C 229.667 105.760,229.755 105.502,229.917 105.440 C 230.101 105.369,230.167 105.078,230.167 104.339 C 230.167 103.556,230.111 103.333,229.917 103.333 C 229.774 103.333,229.667 103.183,229.667 102.985 C 229.667 102.793,229.518 102.447,229.336 102.215 C 229.154 101.984,229.036 101.744,229.074 101.682 C 229.112 101.620,228.990 101.558,228.803 101.544 C 228.616 101.529,228.258 101.289,228.008 101.009 C 227.758 100.729,227.400 100.500,227.211 100.500 C 227.023 100.500,226.822 100.377,226.764 100.226 C 226.706 100.076,226.610 100.001,226.551 100.060 C 226.492 100.119,226.259 100.047,226.034 99.900 C 225.746 99.711,225.666 99.698,225.761 99.858 C 225.902 100.091,225.656 99.936,224.943 99.343 C 224.775 99.203,224.512 99.087,224.360 99.086 C 224.208 99.084,224.102 98.990,224.125 98.875 C 224.148 98.760,224.054 98.667,223.917 98.667 C 223.778 98.667,223.667 98.519,223.667 98.333 C 223.667 98.150,223.760 98.019,223.875 98.042 C 223.990 98.065,224.065 97.990,224.042 97.875 C 224.012 97.727,224.289 97.667,225.000 97.667 C 225.807 97.667,226.000 97.718,226.000 97.934 C 226.000 98.091,226.094 98.166,226.225 98.116 C 226.455 98.028,227.000 98.534,227.000 98.835 C 227.000 98.926,227.225 99.000,227.500 99.000 C 227.788 99.000,228.001 98.911,228.003 98.792 C 228.004 98.653,228.059 98.667,228.167 98.833 C 228.274 99.000,228.329 99.014,228.331 98.875 C 228.332 98.760,228.443 98.667,228.578 98.667 C 228.731 98.667,228.786 98.569,228.723 98.407 C 228.656 98.233,228.741 98.116,228.978 98.054 C 229.174 98.003,229.333 97.857,229.333 97.731 C 229.333 97.604,229.410 97.500,229.503 97.500 C 229.746 97.500,229.634 96.477,229.381 96.380 C 229.264 96.335,229.207 96.237,229.253 96.161 C 229.300 96.086,229.187 95.976,229.002 95.917 C 228.818 95.859,228.667 95.699,228.667 95.562 C 228.667 95.426,228.592 95.360,228.500 95.417 C 228.408 95.473,228.333 95.403,228.333 95.260 C 228.333 95.082,228.175 95.000,227.833 95.000 C 227.500 95.000,227.333 94.917,227.333 94.750 C 227.333 94.441,222.766 94.371,222.577 94.677 M148.106 97.917 C 148.159 98.054,148.370 98.167,148.575 98.167 C 149.090 98.167,149.179 99.655,148.694 100.175 C 148.363 100.531,148.182 100.561,146.542 100.524 L 145.500 100.500 145.500 99.083 L 145.500 97.667 146.755 97.667 C 147.717 97.667,148.033 97.725,148.106 97.917 M205.792 97.850 C 205.769 97.951,206.010 98.065,206.328 98.103 C 206.646 98.141,206.969 98.283,207.045 98.419 C 207.121 98.555,207.317 98.667,207.482 98.667 C 207.646 98.667,207.865 98.854,207.970 99.083 C 208.074 99.313,208.241 99.500,208.340 99.500 C 208.439 99.500,208.477 99.569,208.425 99.653 C 208.373 99.738,208.425 99.908,208.540 100.032 C 209.535 101.103,208.346 104.667,206.994 104.667 C 206.814 104.667,206.667 104.779,206.667 104.917 C 206.667 105.120,206.389 105.167,205.167 105.167 L 203.667 105.167 203.667 101.417 L 203.667 97.667 204.750 97.667 C 205.452 97.667,205.819 97.731,205.792 97.850 " stroke="none" fill="#fcfcfc" fill-rule="evenodd"></path><path id="path1" d="" stroke="none" fill="#100fcfc" fill-rule="evenodd"></path><path id="path2" d="" stroke="none" fill="#100fcfc" fill-rule="evenodd"></path><path id="path3" d="" stroke="none" fill="#100fcfc" fill-rule="evenodd"></path><path id="path4" d="" stroke="none" fill="#100fcfc" fill-rule="evenodd"></path></g></svg>